<?xml version="1.0" standalone="no"?>
<!DOCTYPE svg PUBLIC "-//W3C//DTD SVG 1.1//EN" "http://www.w3.org/Graphics/SVG/1.1/DTD/svg11.dtd" >
<svg>
<metadata>
Created by FontForge 20090622 at Tue Apr 28 01:53:28 2015
 By deploy user
Copyright (c) 2009 by Designstation. All rights reserved.
</metadata>
<defs>
<font id="Ornatique" horiz-adv-x="1045" >
  <font-face 
    font-family="Ornatique"
    font-weight="400"
    font-stretch="normal"
    units-per-em="1000"
    panose-1="4 0 0 0 0 0 0 0 0 0"
    ascent="750"
    descent="-250"
    x-height="707"
    cap-height="912"
    bbox="-347 -557.632 1398 1086"
    underline-thickness="50"
    underline-position="-50"
    unicode-range="U+0020-U+2030"
  />
<missing-glyph horiz-adv-x="500" 
 />
    <glyph glyph-name=".notdef" horiz-adv-x="500" 
 />
    <glyph glyph-name="one" unicode="1" horiz-adv-x="348" 
d="M151 697q61 57 122 51q-74 -6 -146 -134q-9 -22 -37 -7q-77 -53 -117 6q49 1 92.5 22t85.5 62zM102 518q28 12 28 58q45 143 147 164q-34 -27 -34 -103q1 -21 1 -40v-38q1 -28 20 -40q-39 -18 -75 0q-20 5 -41 5.5t-46 -6.5zM104 511q44 11 82 -1q36 -16 81 1
q-23 -28 -23 -60v-353q22 -84 103 -87q-101 -25 -153 16q-48 -42 -168 -18q102 15 103 90q0 88 0.5 173t0.5 171q-3 55 -26 68z" />
    <glyph glyph-name="two" unicode="2" horiz-adv-x="801" 
d="M524 79q45 -8 80.5 -7.5t63.5 6.5t48.5 16t37.5 23q58 36 43 119q-22 99 -115 94q-76 -23 -58 -96q25 -82 94 -70q-49 16 -49 75q0 34 -25 32q16 55 74 40q-33 -12 -31 -43q53 35 80 -11q17 -32 15.5 -61t-20.5 -52q-24 -21 -48 -33t-52.5 -18.5t-62 -9t-75.5 -4.5z
M304 80q190 -43 316.5 -26.5t187.5 90.5q3 -75 -102 -108q-51 -109 -237 -68q-309 136 -433 21q13 28 35 50t55 35.5t77 15.5t101 -10zM185 478q-28 84 29 163q18 22 52 43t78 22q-18 3 -39 2.5t-41 -3t-38.5 -8t-31.5 -13.5q-50 3 -51 40q-32 -55 11 -114q-18 -80 20 -133
q5 -8 9 -7t2 8zM399 468q89 48 58 154q-74 149 -267 76q79 45 157 49.5t153 -30.5q85 -43 91 -123q2 -17 -2.5 -29t-26.5 -10q-16 -42 -56.5 -63t-106.5 -24zM443 464q93 12 126 77q11 8 18 2q13 33 38 25q-44 -112 -182 -104zM565 483q-24 -20 -67.5 -25.5t-109.5 5.5
q-1 -27 -44 -53q-376 -220 -309 -411q24 114 233 235q117 56 192 118t105 131zM50 24q47 101 172 170q-10 -36 -45 -54q8 -25 -38 -41q-29 -13 -51.5 -31.5t-37.5 -43.5zM183 635q-72 -107 10 -183q52 -38 115 -2q70 52 28 133q-48 61 -100 24q-29 -25 -33.5 -51t13.5 -55
q-6 49 42 67q26 9 15 33q50 1 64 -56q-23 26 -49 15q52 -38 24 -77q-38 -47 -94 -34q-108 69 -35 186z" />
    <glyph glyph-name="three" unicode="3" horiz-adv-x="643" 
d="M183 485q-28 82 28 162q9 10 22 21.5t29.5 20.5t36.5 15.5t41 6.5q-18 3 -38.5 3t-40.5 -3t-38 -8.5t-31 -13.5q-49 2 -51 40q-16 -29 -12.5 -56.5t24.5 -56.5q-20 -78 18 -132q5 -8 9.5 -6.5t2.5 7.5zM81 277q44 140 152 111q63 -22 67 -106q-1 -99 -91 -114
q-76 3 -77 79q8 86 75 87q-44 -27 -29 -83q6 -32 -18 -36q27 -48 80 -24q-34 6 -40 37q60 -23 76 28q17 68 -26 111q-118 56 -169 -90zM402 104q14 -6 29.5 0.5t28.5 20t22.5 31t12.5 33.5q-27 -47 -59 -44q-29 -6 -24 -25q-30 11 -24 33q14 -8 24.5 -1.5t11.5 17.5
q7 25 -21 34q-26 1 -33 -27q-6 -24 0 -44t32 -28zM127 380q-106 -130 -49 -276q65 -110 210 -80q-133 -47 -214 45q-81 90 -58 241q16 55 55 39q25 44 56 31zM300 468q140 20 250 -53q95 -58 79 -187q-49 -246 -405 -226q228 24 285 191q-18 11 -3 59q14 93 -78 140
q-47 29 -102.5 43t-130.5 13q11 7 33 11t72 9zM391 68q-180 -84 -263 -10q-25 21 -46 49q36 -11 60 -41q21 13 46 -15q104 -35 203 17zM394 476q87 50 57 152q-72 147 -263 75q156 87 307 19q42 -21 63.5 -51t24.5 -72q2 -15 -2.5 -27t-24.5 -10q-33 -82 -162 -86zM437 472
q93 11 125 76q11 10 17 1q14 33 38 26q-43 -112 -180 -103zM433 494q70 106 -11 180q-51 38 -113 2q-70 -52 -27 -131q46 -61 100 -23q54 48 17 105q6 -50 -41 -66q-26 -11 -14 -32q-50 -3 -63 53q23 -24 48 -14q-51 36 -24 75q36 48 92 34q108 -66 36 -183z" />
    <glyph glyph-name="four" unicode="4" horiz-adv-x="717" 
d="M13 223q74 38 160.5 50t186.5 -6q224 -46 343 -1q-16 -28 -52.5 -50.5t-85 -35t-105 -12t-111.5 18.5q-48 13 -92.5 23t-86.5 16t-81 5.5t-76 -8.5zM198 543q53 15 88 1q33 -16 78 -1q-23 -14 -39.5 -29t-27.5 -29l-72 -104l-71 -104q-14 -1 -32 -5t-38 -11t-40.5 -16.5
t-38.5 -22.5q1 1 4.5 9.5t9 20t13.5 25t17 25.5l82.5 114.5t56.5 86.5q18 31 10 40zM200 551q32 9 54 32q13 19 25 39.5l24 39.5q18 42 5.5 62.5t-57.5 23.5q115 27 178 -8q71 48 179 8q-79 -6 -76 -71q0 -23 -0.5 -46t-0.5 -44q5 -28 27 -35q-45 -17 -84 0q-34 17 -81 0
q8 11 11 27.5t1 36.5q-50 -50 -37 -67q-50 -16 -85 5q-26 12 -83 -3zM389 540q46 19 83 3q47 -18 86 -1q-27 -32 -28 -83v-346q-2 -104 96 -120q-58 -8 -101 -1.5t-69 29.5q-56 -41 -162 -20q106 21 107 112v332q3 71 -12 95zM701 299q-2 -15 -15.5 -25t-32.5 -14.5
t-39.5 -3.5t-35.5 7q54 0 71 29q18 21 33 7q7 28 -16 40q-1 -18 -12 -24t-21 -1q-26 7 -20 38q14 23 43 14q25 -8 38.5 -23t6.5 -44zM447 259q21 -48 22 -67t-11 -19.5t-33.5 12.5t-45.5 30l-47 33t-38 21q-49 21 -46 80q7 69 83 74q63 -8 57 -60q-12 -60 -69 -57
q20 8 27 22.5t4 34.5q-3 22 18 23q-19 35 -65 22q29 -6 30 -29q-47 23 -62 -14q-22 -46 12 -79q20 -12 42 -15q16 -2 33 -11t33.5 -15.5t31 -5t24.5 19.5z" />
    <glyph glyph-name="five" unicode="5" horiz-adv-x="651" 
d="M40 712q110 62 267 36q172 -36 264 -1q-12 -21 -40 -38.5t-65.5 -27t-81 -9.5t-85.5 14q-75 19 -138.5 29.5t-120.5 -3.5zM81 280q44 142 154 114q63 -24 68 -107q-1 -102 -92 -118q-79 5 -79 80q7 86 77 89q-44 -27 -31 -84q8 -32 -17 -37q26 -50 83 -23q-36 6 -42 37
q61 -24 76 29q18 67 -25 112q-120 58 -172 -92zM458 217q15 1 26 14t16.5 31.5t5.5 39t-6 36.5q-3 -55 -30 -68q-25 -19 -9 -33q-33 -6 -39 16q17 1 23 12t2 21q-7 25 -36 21q-24 -11 -18 -41q7 -25 23 -39.5t42 -9.5zM127 385q-107 -130 -50 -280q66 -113 214 -81
q-134 -48 -217 44q-83 94 -60 246q16 56 57 41q26 44 56 30zM47 704q77 18 116.5 -0.5t44.5 -70.5v-44q0 -23 18 -30q-40 -15 -79 0q-37 13 -88 0q36 12 36 54v15.5t1 15.5q0 68 -49 60zM60 549q47 16 83 -1q42 -15 85 3q-25 -15 -19 -35q0 -24 23 -23q40 0 67 35
q-5 -33 -23 -47q39 -10 42 -63q-42 45 -106 32q-21 -5 -40 -12.5t-36 -18.5l-24 16t-24 18q23 68 -28 96zM304 507q142 20 253 -57q97 -64 82 -203q-51 -267 -413 -245q229 25 292 207q-22 12 -4 64q13 99 -80 152q-21 11 -48 17.5t-61 7.5q-20 10 -8 30q-34 4 -13 27z
M395 68q-184 -86 -267 -10q-26 21 -46 50q33 -10 62 -44q19 17 46 -13q106 -35 205 17z" />
    <glyph glyph-name="six" unicode="6" horiz-adv-x="619" 
d="M187 318q47 -119 154 -95q63 20 67 90q-1 86 -90 100q-78 -5 -78 -69q6 -73 75 -75q-43 23 -30 71q6 28 -18 31q25 43 81 20q-34 -5 -40 -32q59 22 75 -23q17 -60 -26 -95q-116 -48 -170 77zM462 504q28 83 -28 162q-34 43 -121 43q84 49 140 -1q48 3 51 39
q30 -56 -12 -112q19 -76 -18 -133q-5 -8 -9.5 -6.5t-2.5 8.5zM147 688q61 33 116 23q32 -2 45 16q30 0 39 23q-48 8 -97.5 -8.5t-102.5 -53.5zM284 700q-151 24 -218 -117q-15 -22 -50 -28q42 -22 94 -1q45 21 99 0q-21 36 -1 69q32 59 76 77zM17 547q39 -26 112 6
q45 10 78 -9q-33 -15 -50 -82q-31 -148 46 -334q65 -142 238 -103q-232 -84 -361 123q-80 133 -60 324q9 44 -3 75zM456 400q15 -16 24 -49t9 -74t-10.5 -83.5t-32.5 -77.5t-57.5 -56.5t-86.5 -19.5q138 -38 224 48q45 44 65 102.5t13 133.5q-12 55 -54 43q-6 12 -18.5 19.5
t-26.5 11.5t-27.5 4.5t-21.5 -2.5zM224 269q-63 81 -17 148q41 54 118 63q43 8 53 27q4 -7 -2 -20q72 -2 123 -29t84 -79q-61 7 -95 47q-25 -29 -81 8q-26 19 -95 19q7 -8 9 -24q-57 18 -95 -26q-44 -55 -2 -134z" />
    <glyph glyph-name="seven" unicode="7" horiz-adv-x="451" 
d="M0 554q45 -118 152 -95q62 19 67 91q-1 44 -23.5 67.5t-67.5 30.5q-76 -3 -76 -68q6 -72 74 -74q-43 21 -30 71q8 26 -16 31q25 41 80 19q-36 -5 -40 -32q58 22 75 -23q16 -57 -26 -95q-115 -48 -169 77zM43 509q-29 83 29 161q17 21 47 35t74 14q-43 24 -75 18t-66 -27
q-48 5 -51 41q-32 -58 13 -113q-21 -76 17 -130q5 -8 9.5 -6.5t2.5 7.5zM62 719q56 29 117 36t136 -6q170 -35 258 0q-12 -21 -39 -38.5t-63.5 -26.5t-79 -9t-83.5 14l-69.5 17.5t-62.5 13t-58 5t-56 -5.5zM246 562q15 4 25.5 11.5t19.5 17.5q6 12 13 23.5l14 22.5
q17 33 65 30q34 -4 88 8q-16 -10 -27.5 -23.5t-21.5 -30.5q-29 -56 -11 -59q-43 -16 -69 0q-45 13 -96 0zM248 553q49 15 86 2q33 -16 76 -1q-41 -30 -57 -57l-90.5 -165.5l-91.5 -166.5q-20 -38 -25.5 -71t6.5 -62q32 -54 92 -26q-110 -48 -157 41q-41 64 -17 149
q14 50 67 122q38 63 64.5 111.5t42.5 84.5q16 30 4 39zM203 8q-15 1 -27 10.5t-18 25.5t-5.5 38t9.5 47q3 -53 31 -68q22 -18 9 -32q30 -6 37 17q-16 0 -22 11.5t-2 19.5q8 27 35 20q23 -10 17 -40q-6 -24 -20.5 -37.5t-43.5 -11.5z" />
    <glyph glyph-name="eight" unicode="8" horiz-adv-x="594" 
d="M128 141q53 -126 171 -77q43 37 25 96q-15 44 -76 24q6 26 40 31q-54 21 -80 -20q24 -4 18 -31q-15 -48 30 -72q-69 1 -76 76q1 64 78 67q89 -12 91 -98q-4 -71 -68 -91q-107 -25 -153 95zM453 637q-54 125 -172 77q-42 -38 -25 -96q16 -44 76 -23q-5 -27 -40 -32
q54 -22 81 20q-25 4 -18 31q15 49 -30 72q68 -3 75 -76q0 -65 -78 -68q-89 14 -90 100q5 71 68 90q106 24 153 -95zM265 525q-1 -16 32 -28l70 -30l71 -32q147 -83 156 -199q-9 -163 -118 -214q-137 -55 -157 -19q-123 -38 -243 49q-92 93 -69 211q37 127 124 101
q49 44 125 16q-42 -13 -46 -19q-102 -77 -84 -194q27 -136 151 -141q180 1 200 162q7 97 -128 168q-169 57 -211 113q-21 23 -37.5 36t-30.5 20q12 10 9 32q-2 34 1.5 55.5t9.5 32.5q48 107 222 104q169 -3 206 -136q9 -96 -73 -87q-37 -70 -104 -32q31 25 49 53.5t23 63.5
q6 52 -42 92q-60 32 -123 4q-56 -31 -44 -106q12 -61 61 -76zM108 461q18 8 34 4t31 -13.5t28.5 -21.5t27.5 -19q-8 0 -18.5 3.5t-22 8t-22 8t-17.5 1.5q-28 0 -27 17q-28 -14 -19 -33q14 10 25 6t14 -13q13 -21 -13 -34q-26 -6 -39 18q-11 20 -8.5 38t26.5 30zM496 438
q-15 -5 -29 -2.5t-28.5 8.5t-28.5 13.5t-29 13.5q16 1 38 -4t36 -2q30 1 28 -17q28 16 18 32q-13 -8 -24.5 -5t-14.5 11q-11 21 14 33q24 7 39 -17q10 -19 8 -36t-27 -28z" />
    <glyph glyph-name="nine" unicode="9" horiz-adv-x="609" 
d="M199 413q45 -118 152 -94q63 19 66 90q0 84 -89 98q-77 -5 -77 -68q8 -72 74 -75q-42 23 -30 72q8 27 -17 30q26 42 81 20q-34 -4 -41 -32q59 21 76 -23q16 -56 -26 -94q-115 -48 -169 76zM10 522q10 3 16 11.5t10 20.5q63 188 257 188q209 -9 281 -199q5 -17 18 -21
q-26 -11 -81 0q-44 12 -79 0q14 24 7 51q-42 134 -159 138q-110 -19 -140 -161q-3 -24 11 -28q-37 -12 -75 0q-36 10 -66 0zM11 517q36 10 69 -5q41 -8 74 5q-23 -21 -21 -58q15 -150 139 -161q75 -6 125 42q-94 -104 -257 -47q-102 46 -120 185q-4 37 -9 39zM431 512
q37 18 75 3q43 -12 88 1q-16 -19 -17 -42q-32 -464 -481 -574q368 163 356 576q-8 35 -21 36zM282 684q-12 9 -28 5.5t-31.5 -13.5t-28.5 -25.5t-19 -30.5q36 39 66 32q30 -3 28 19q27 -17 18 -38q-13 11 -24.5 6.5t-14.5 -13.5q-11 -26 14 -38q26 -8 38 19q11 23 8.5 43.5
t-26.5 33.5z" />
    <glyph glyph-name="ampersand" unicode="&#x26;" horiz-adv-x="938" 
d="M631 114q27 -26 55.5 -49t58 -38.5t58 -22.5t54.5 -1q62 20 66 89q-2 83 -88 96q-73 -3 -75 -67q6 -70 72 -73q-41 22 -29 70q9 26 -16 29q24 41 78 20q-33 -3 -39 -30q58 19 73 -23q17 -57 -25 -93q-24 -12 -56 -7t-66 20t-66 37t-55 43zM445 480q27 81 -28 157
q-33 42 -117 42q83 47 136 -1q47 2 50 38q30 -56 -12 -109q19 -75 -17 -128q-5 -8 -9.5 -6.5t-2.5 7.5zM436 692q-77 46 -140 -3q-54 -87 23 -161q-28 -16 -76 0q-55 21 -96 -1q10 21 13 56q24 146 170 157q53 3 106 -48zM147 516q41 22 96 0q47 -15 80 0q-19 -25 8 -57
q289 -427 484 -466q-67 -41 -152 18q-153 -7 -334 255l-75 107l-74 107q-14 31 -33 36zM611 130q-80 72 -64 121q36 199 -73 202q68 42 130 -2q72 41 132 -4q-89 -7 -98 -103q-6 -81 -30 -138q-21 -47 3 -76zM142 510q55 -40 12 -109q-55 -94 2 -233q69 -140 200 -128
q38 9 78 37q36 23 69 -16q-12 -1 -23 -7.5t-22 -17.5q-51 -31 -106.5 -36t-119.5 15q-183 64 -207 251q-12 135 82 195q39 33 35 49zM145 167q44 -114 149 -93q59 19 64 89q0 83 -87 95q-75 -3 -75 -65q6 -71 73 -73q-44 23 -29 69q6 27 -18 30q26 40 79 20q-33 -6 -39 -31
q58 19 73 -24q18 -54 -25 -91q-112 -48 -165 74z" />
    <glyph glyph-name="question" unicode="?" horiz-adv-x="516" 
d="M53 512q55 -130 175 -80q21 20 28.5 44t-3.5 55q-15 46 -77 23q6 28 42 33q-56 22 -83 -21q26 -3 18 -31q-15 -50 31 -73q-71 2 -78 77q0 67 80 70q92 -14 93 -102q-4 -73 -69 -93q-110 -26 -157 98zM81 475q2 -6 -2.5 -7.5t-10.5 6.5q-37 56 -19 136q-43 57 -11 116
q1 -39 52 -41q26 17 68.5 22.5t88.5 -3.5q-45 0 -82 -19.5t-55 -41.5q-58 -82 -29 -168zM169 122q28 0 47 -20t19 -49t-19 -49.5t-47 -20.5q-27 0 -46.5 20.5t-19.5 49.5t19.5 49t46.5 20zM88 694q29 26 58 38t54.5 16.5t46.5 3l35 -2.5q38 -3 72.5 -15t61.5 -32.5t46 -50
t26 -68.5q0 -18 3.5 -32.5t8.5 -26.5q-44 24 -101 1q-50 -17 -82 0q21 19 30.5 41t9 43.5t-9.5 40.5t-26 32q-24 21 -56 30t-64.5 9t-62.5 -7.5t-50 -19.5zM196 142q-104 81 -31 199q11 20 32.5 40t52.5 43t43 54q6 -13 2 -28q21 24 22 67q27 -13 57 -6q89 32 127 1
q-28 -7 -55 -51q-52 -77 -164 -132q-119 -59 -86 -187z" />
    <glyph glyph-name="exclam" unicode="!" horiz-adv-x="331" 
d="M161 123q29 0 49 -21t20 -50q0 -30 -20 -50.5t-49 -20.5q-28 0 -47.5 20.5t-19.5 50.5q0 29 19.5 50t47.5 21zM79 543q16 17 14 47v32v35q-4 83 -78 92q47 10 86 5.5t62 -24.5q12 12 29.5 17.5t37.5 7t42.5 -0.5l43.5 -4q-73 -8 -78 -92v-76q0 -21 16 -43q-5 5 -16.5 8.5
t-25 4.5t-27.5 -1t-23 -8q-14 -8 -29 -9t-27 1t-19.5 5zM233 473q-1 35 22 53q-38 26 -82 11q-44 -25 -94 -1q24 -26 23 -72q8 -241 60 -308q59 67 71 317z" />
    <glyph glyph-name="period" unicode="." horiz-adv-x="170" 
d="M84 123q29 0 49 -21t20 -50q0 -30 -20 -50.5t-49 -20.5q-28 0 -47.5 20.5t-19.5 50.5q0 29 19.5 50t47.5 21z" />
    <glyph glyph-name="comma" unicode="," horiz-adv-x="171" 
d="M83 123q29 0 49 -21t20 -50v-5h4q-2 -34 -9 -68q-6 -29 -17 -64.5t-31 -67.5t-29.5 -58t-13.5 -45.5t-3 -33t4 -21.5l7 -22q-13 19 -19 43q-5 20 -6 48t13 60q17 44 25.5 87.5t6.5 75.5h-1q-28 0 -47.5 20.5t-19.5 50.5q0 29 19.5 50t47.5 21z" />
    <glyph glyph-name="colon" unicode=":" horiz-adv-x="174" 
d="M84 123q29 0 49 -21t20 -50q0 -30 -20 -50.5t-49 -20.5q-28 0 -47.5 20.5t-19.5 50.5q0 29 19.5 50t47.5 21zM88 443q29 0 49 -21t20 -50q0 -30 -20 -50.5t-49 -20.5q-28 0 -47.5 20.5t-19.5 50.5q0 29 19.5 50t47.5 21z" />
    <glyph glyph-name="semicolon" unicode=";" horiz-adv-x="171" 
d="M87 443q29 0 49 -21t20 -50q0 -30 -20 -50.5t-49 -20.5q-28 0 -47.5 20.5t-19.5 50.5q0 29 19.5 50t47.5 21zM83 123q29 0 49 -21t20 -50v-5h4q-2 -34 -9 -68q-6 -29 -17 -64.5t-31 -67.5t-29.5 -58t-13.5 -45.5t-3 -33t4 -21.5l7 -22q-13 19 -19 43q-5 20 -6 48t13 60
q17 44 25.5 87.5t6.5 75.5h-1q-28 0 -47.5 20.5t-19.5 50.5q0 29 19.5 50t47.5 21z" />
    <glyph glyph-name="quotedbl" unicode="&#x22;" horiz-adv-x="391" 
d="M84 892q29 0 49 -21t20 -50v-5h4q-2 -34 -9 -68q-6 -29 -17 -64.5t-31 -67.5t-29.5 -58t-13.5 -45.5t-3 -33t4 -21.5l7 -22q-13 19 -19 43q-5 20 -6 48t13 60q17 44 25.5 87.5t6.5 75.5h-1q-28 0 -47.5 20.5t-19.5 50.5q0 29 19.5 50t47.5 21zM301 894q29 0 49 -21
t20 -50v-5h4q-2 -34 -9 -68q-6 -29 -17 -64.5t-31 -67.5t-29.5 -58t-13.5 -45.5t-3 -33t4 -21.5l7 -22q-13 19 -19 43q-5 20 -6 48t13 60q17 44 25.5 87.5t6.5 75.5h-1q-28 0 -47.5 20.5t-19.5 50.5q0 29 19.5 50t47.5 21z" />
    <glyph glyph-name="greater" unicode="&#x3e;" 
d="M1031 405q-20 -92 -66.5 -149.5t-110.5 -80t-142 -10.5t-161 60q-25 -47 -60.5 -69.5t-76 -21t-84 26.5t-84.5 72q-28 32 -53.5 50t-52.5 24.5t-57 2.5t-68 -15l7.5 7.5t8.5 6.5l-3 -1q55 81 117 119t129 44t138.5 -14.5t145.5 -57.5q70 -35 136 -59.5t126 -28.5t113 17
t98 77zM544 229q-19 11 -37.5 24l-37.5 27q-49 37 -91.5 59.5t-83 31t-80.5 4.5t-83 -20q45 5 88.5 -15t85.5 -53q32 -25 62.5 -44.5t60.5 -29t58.5 -7t57.5 22.5z" />
    <glyph glyph-name="less" unicode="&#x3c;" 
d="M14 405q45 -56 98 -77t113 -17t126 28.5t136 59.5q74 37 145.5 57.5t138.5 14.5t129 -44t117 -119l-3 1q5 -3 8.5 -6.5l7.5 -7.5q-38 11 -68 15t-57 -2.5t-52.5 -24.5t-53.5 -50q-41 -47 -84.5 -72t-84 -26.5t-76 21t-60.5 69.5q-83 -48 -161 -60t-142 10.5t-110.5 80
t-66.5 149.5zM501 229q28 -20 57 -22.5t59 7t60.5 29t62.5 44.5q42 33 85.5 53t88.5 15q-44 16 -83.5 20t-80 -4.5t-83 -31t-91.5 -59.5l-37.5 -27t-37.5 -24z" />
    <glyph glyph-name="asciitilde" unicode="~" horiz-adv-x="1282" 
d="M14 304q58 201 291 198q152 -2 303.5 -2.5t306.5 -0.5q285 4 237 240q157 -156 23 -281q-19 -174 -314 -132q-131 12 -259.5 26l-259.5 28q-276 33 -328 -76z" />
    <glyph glyph-name="underscore" unicode="_" horiz-adv-x="1011" 
d="M14 -85q116 -28 234.5 -22.5t241.5 49.5q125 45 250.5 37.5t257.5 -64.5q-123 18 -245.5 9.5t-246.5 -51.5t-246 -33.5t-246 75.5z" />
    <glyph glyph-name="bracketleft" unicode="[" horiz-adv-x="833" 
 />
    <glyph glyph-name="bar" unicode="|" horiz-adv-x="278" 
d="M147 1022q-38 -158 -30.5 -318t66.5 -326q61 -168 51 -338.5t-87 -347.5q25 167 13.5 332.5t-69.5 332.5t-45 332t101 333z" />
    <glyph glyph-name="endash" unicode="&#x2013;" horiz-adv-x="1011" 
d="M14 301q116 -28 234.5 -22.5t241.5 49.5q125 45 250.5 37.5t257.5 -64.5q-123 18 -245.5 9.5t-246.5 -51.5t-246 -33.5t-246 75.5z" />
    <glyph glyph-name="emdash" unicode="&#x2014;" horiz-adv-x="1011" 
d="M997 301q-124 -66 -246 -75.5t-246 33.5t-246.5 51.5t-245.5 -9.5q132 57 257.5 64.5t250.5 -37.5q123 -44 241.5 -49.5t234.5 22.5z" />
    <glyph glyph-name="glyph26" horiz-adv-x="1282" 
d="M1268 304q-52 109 -328 76l-259.5 -28t-259.5 -26q-295 -42 -314 132q-134 125 23 281q-48 -236 237 -240q155 0 306.5 0.5t303.5 2.5q232 3 291 -198z" />
    <glyph glyph-name="glyph27" horiz-adv-x="1282" 
d="M1268 573q-59 -201 -291 -198q-152 2 -303.5 2.5t-306.5 0.5q-285 -4 -237 -240q-157 156 -23 281q19 174 314 132q131 -12 259.5 -26l259.5 -28q276 -33 328 76z" />
    <glyph glyph-name="glyph28" horiz-adv-x="1282" 
d="M14 573q52 -109 328 -76l259.5 28t259.5 26q295 42 314 -132q134 -125 -23 -281q48 236 -237 240q-155 0 -306.5 -0.5t-303.5 -2.5q-233 -3 -291 198z" />
    <glyph glyph-name="quotesinglbase" unicode="&#x201a;" horiz-adv-x="171" 
d="M83 123q29 0 49 -21t20 -50v-5h4q-2 -34 -9 -68q-6 -29 -17 -64.5t-31 -67.5t-29.5 -58t-13.5 -45.5t-3 -33t4 -21.5l7 -22q-13 19 -19 43q-5 20 -6 48t13 60q17 44 25.5 87.5t6.5 75.5h-1q-28 0 -47.5 20.5t-19.5 50.5q0 29 19.5 50t47.5 21z" />
    <glyph glyph-name="grave" unicode="`" horiz-adv-x="171" 
d="M84 892q29 0 49 -21t20 -50v-5h4q-2 -34 -9 -68q-6 -29 -17 -64.5t-31 -67.5t-29.5 -58t-13.5 -45.5t-3 -33t4 -21.5l7 -22q-13 19 -19 43q-5 20 -6 48t13 60q17 44 25.5 87.5t6.5 75.5h-1q-28 0 -47.5 20.5t-19.5 50.5q0 29 19.5 50t47.5 21z" />
    <glyph glyph-name="numbersign" unicode="#" horiz-adv-x="1115" 
d="M117 497q72 -17 145 -22t148 5q21 99 73 187t134 168q-48 -80 -82 -165t-52 -178q27 6 54.5 14t55.5 18q6 1 11 4q20 104 72.5 195.5t137.5 174.5q-49 -81 -83.5 -168.5t-52.5 -181.5q206 43 423 -51q-109 16 -216.5 11t-216.5 -35q-2 -11 -2.5 -23t-1.5 -23
q-1 -17 -3 -32l-4 -31q84 7 168.5 -9t172.5 -54q-89 13 -177.5 12t-178.5 -18q-48 -176 -205 -306q48 65 81.5 137t53.5 153l-33 -10l-33 -10q-15 -5 -29.5 -9l-28.5 -8q-24 -91 -75.5 -170t-132.5 -146q49 68 83.5 143t53.5 160q-91 -11 -181.5 6t-181.5 66
q92 -23 185.5 -24t190.5 22l4 38t3 39l3 44q-141 2 -283 77zM490 328q24 8 48 14.5t48 11.5q3 21 4.5 42t3.5 43q0 7 1 11q-64 -20 -123 -26q-2 -15 -3 -30l-2 -30l-2 -23.5t-3 -22.5q7 2 14 4.5t14 5.5z" />
    <glyph glyph-name="percent" unicode="%" horiz-adv-x="864" 
d="M747 935q-112 -118 -184 -261t-103 -316q-29 -177 -122 -320t-248 -259q104 133 176 282.5t104 323.5t124.5 310.5t252.5 239.5zM580 343q26 71 86 57q34 -12 37 -55q-2 -50 -51 -59q-42 3 -42 41q3 43 41 45q-24 -14 -17 -42q4 -17 -9 -18q14 -27 45 -13q-18 3 -23 19
q34 -12 43 15q9 33 -15 56q-64 28 -95 -46zM659 28q-7 -5 -16 -3t-17.5 7.5t-16 14t-10.5 17.5q21 -23 37 -17q16 0 16 -12q15 11 11 22q-8 -6 -14.5 -3.5t-8.5 7.5q-6 13 7 22q16 3 22 -12q6 -12 5 -23.5t-15 -19.5zM477 315q11 3 17.5 10t13.5 16q57 80 150 77
q110 0 157 -92q15 -29 -11 -57q3 -70 -44 -70q15 199 -105 208q-17 0 -31.5 -9t-25 -22.5t-17.5 -30t-8 -32.5q-14 -4 -23 -3.5t-22 5.5q-26 7 -51 0zM478 313q28 6 51 -2q8 -3 18 -5t26 3q-1 -5 -0.5 -6.5t4.5 -3.5q-16 -19 -17 -41q-12 -117 24 -200q53 -78 153 -39
q-111 -50 -195 25q-69 74 -65 203q1 16 3 36q0 2 -1.5 8.5t-6.5 7.5q8 3 8.5 7.5t-2.5 6.5zM760 193q51 6 47 75q21 19 16 48q32 -43 14 -62q17 -119 -62 -208q-72 -51 -138 -27q86 -19 114 105q7 43 9 69zM124 735q26 71 86 57q34 -12 37 -55q-2 -50 -51 -59q-42 3 -42 41
q3 43 41 45q-24 -14 -17 -42q4 -17 -9 -18q14 -27 45 -13q-18 3 -23 19q34 -12 43 15q9 33 -15 56q-64 28 -95 -46zM203 420q-7 -5 -16 -3t-17.5 7.5t-16 14t-10.5 17.5q21 -23 37 -17q16 0 16 -12q15 11 11 22q-8 -6 -14.5 -3.5t-8.5 7.5q-6 13 7 22q16 3 22 -12
q6 -12 5 -23.5t-15 -19.5zM21 707q11 3 17.5 10t13.5 16q57 80 150 77q110 0 157 -92q15 -29 -11 -57q3 -70 -44 -70q15 199 -105 208q-17 0 -31.5 -9t-25 -22.5t-17.5 -30t-8 -32.5q-14 -4 -23 -3.5t-22 5.5q-26 7 -51 0zM22 705q28 6 51 -2q8 -3 18 -5t26 3
q-1 -5 -0.5 -6.5t4.5 -3.5q-16 -19 -17 -41q-12 -117 24 -200q53 -78 153 -39q-111 -50 -195 25q-69 74 -65 203q1 16 3 36q0 2 -1.5 8.5t-6.5 7.5q8 3 8.5 7.5t-2.5 6.5zM304 585q51 6 47 75q21 19 16 48q32 -43 14 -62q17 -119 -62 -208q-72 -51 -138 -27q86 -19 114 105
q7 43 9 69z" />
    <glyph glyph-name="parenleft" unicode="(" 
d="M14 405q45 -56 98 -77t113 -17t126 28.5t136 59.5q74 37 145.5 57.5t138.5 14.5t129 -44t117 -119l-3 1q5 -3 8.5 -6.5l7.5 -7.5q-38 11 -68 15t-57 -2.5t-52.5 -24.5t-53.5 -50q-41 -47 -84.5 -72t-84 -26.5t-76 21t-60.5 69.5q-83 -48 -161 -60t-142 10.5t-110.5 80
t-66.5 149.5zM501 229q28 -20 57 -22.5t59 7t60.5 29t62.5 44.5q42 33 85.5 53t88.5 15q-44 16 -83.5 20t-80 -4.5t-83 -31t-91.5 -59.5l-37.5 -27t-37.5 -24z" />
    <glyph glyph-name="parenright" unicode=")" 
d="M1031 405q-20 -92 -66.5 -149.5t-110.5 -80t-142 -10.5t-161 60q-25 -47 -60.5 -69.5t-76 -21t-84 26.5t-84.5 72q-28 32 -53.5 50t-52.5 24.5t-57 2.5t-68 -15l7.5 7.5t8.5 6.5l-3 -1q55 81 117 119t129 44t138.5 -14.5t145.5 -57.5q70 -35 136 -59.5t126 -28.5t113 17
t98 77zM544 229q-19 11 -37.5 24l-37.5 27q-49 37 -91.5 59.5t-83 31t-80.5 4.5t-83 -20q45 5 88.5 -15t85.5 -53q32 -25 62.5 -44.5t60.5 -29t58.5 -7t57.5 22.5z" />
    <glyph glyph-name="equal" unicode="=" horiz-adv-x="1014" 
d="M16 297q116 -28 234.5 -22.5t241.5 49.5q125 45 250.5 37.5t257.5 -64.5q-123 18 -245.5 9.5t-246.5 -51.5t-246 -33.5t-246 75.5zM14 432q116 -28 234.5 -22.5t241.5 49.5q125 45 250.5 37.5t257.5 -64.5q-123 18 -245.5 9.5t-246.5 -51.5t-246 -33.5t-246 75.5z" />
    <glyph glyph-name="guillemotleft" unicode="&#xab;" 
d="M14 405q45 -56 98 -77t113 -17t126 28.5t136 59.5q74 37 145.5 57.5t138.5 14.5t129 -44t117 -119l-3 1q5 -3 8.5 -6.5l7.5 -7.5q-38 11 -68 15t-57 -2.5t-52.5 -24.5t-53.5 -50q-41 -47 -84.5 -72t-84 -26.5t-76 21t-60.5 69.5q-83 -48 -161 -60t-142 10.5t-110.5 80
t-66.5 149.5zM501 229q28 -20 57 -22.5t59 7t60.5 29t62.5 44.5q42 33 85.5 53t88.5 15q-44 16 -83.5 20t-80 -4.5t-83 -31t-91.5 -59.5l-37.5 -27t-37.5 -24z" />
    <glyph glyph-name="guillemotright" unicode="&#xbb;" 
d="M1031 405q-20 -92 -66.5 -149.5t-110.5 -80t-142 -10.5t-161 60q-25 -47 -60.5 -69.5t-76 -21t-84 26.5t-84.5 72q-28 32 -53.5 50t-52.5 24.5t-57 2.5t-68 -15l7.5 7.5t8.5 6.5l-3 -1q55 81 117 119t129 44t138.5 -14.5t145.5 -57.5q70 -35 136 -59.5t126 -28.5t113 17
t98 77zM544 229q-19 11 -37.5 24l-37.5 27q-49 37 -91.5 59.5t-83 31t-80.5 4.5t-83 -20q45 5 88.5 -15t85.5 -53q32 -25 62.5 -44.5t60.5 -29t58.5 -7t57.5 22.5z" />
    <glyph glyph-name="perthousand" unicode="&#x2030;" horiz-adv-x="833" 
 />
    <glyph glyph-name="asterisk" unicode="*" horiz-adv-x="792" 
d="M400 464q15 -32 99 -23q39 5 78 9l78 8q89 12 95 -40q40 -38 -7 -85q15 70 -71 72h-93t-91 -1q-70 0 -88 60zM397 460q-17 -5 -25.5 -29.5t-8.5 -66.5q0 -39 0.5 -78.5t-0.5 -78.5q1 -90 -50 -90q-43 -36 -84 17q68 -24 79 62l10 92.5l10 90.5q7 70 69 81zM402 467
q17 5 25.5 29.5t8.5 66.5q0 39 -0.5 78.5t0.5 78.5q-2 90 50 90q43 36 84 -17q-68 24 -79 -62l-10 -92.5l-10 -90.5q-8 -71 -69 -81zM392 471q-15 32 -99 23q-39 -5 -78 -9l-78 -8q-89 -12 -95 40q-40 38 7 85q-15 -70 71 -72h93t91 1q70 0 88 -60zM400 462q-10 -34 60 -82
l64.5 -44.5l64.5 -44.5q76 -49 46 -92q6 -56 -60 -60q57 43 -7 101l-70 60l-70 59q-53 46 -28 103zM395 461q-33 13 -88 -51l-51.5 -59.5l-51.5 -59.5q-57 -69 -96 -36q-56 1 -53 68q37 -62 100 -4l68.5 63l66.5 62q50 49 105 17zM403 463q17 -8 39.5 5.5t49.5 44.5l51 60
l51 59q58 70 97 36q28 -1 41 -17t11 -51q-35 63 -100 5l-68.5 -63l-65.5 -63q-53 -48 -106 -16zM398 472q10 35 -60 82l-64.5 44.5l-64.5 44.5q-76 49 -46 92q-4 56 61 60q-58 -44 7 -101l70 -60l70 -59q53 -45 27 -103z" />
    <glyph glyph-name="slash" unicode="/" horiz-adv-x="745" 
d="M671 935q-34 -35 -64 -73t-57 -79q46 35 110 20q66 -22 72 -107q-2 -49 -25.5 -78t-74.5 -38q-82 6 -82 80q6 86 80 89q-48 -28 -33 -83q9 -32 -18 -35q14 -26 36.5 -32.5t51.5 6.5q-35 6 -45 38q67 -24 85 29q17 65 -30 110q-81 36 -135 -12q-58 -91 -98 -193.5
t-60 -218.5q-29 -177 -122 -320t-248 -259q104 133 176 282.5t104 323.5t124.5 310.5t252.5 239.5z" />
    <glyph glyph-name="backslash" unicode="\" horiz-adv-x="745" 
d="M671 -221q-160 103 -252.5 239.5t-124.5 310.5t-104 323.5t-176 282.5q155 -116 248 -259t122 -320q20 -116 60 -218.5t98 -193.5q54 -48 135 -12q47 45 30 110q-18 53 -85 29q10 32 45 38q-29 13 -51.5 6.5t-36.5 -32.5q27 -3 18 -35q-15 -55 33 -83q-74 3 -80 89
q0 74 82 80q51 -9 74.5 -38t25.5 -78q-6 -85 -72 -107q-64 -15 -110 20q27 -41 57 -79t64 -73z" />
    <glyph glyph-name="A" unicode="A" horiz-adv-x="986" 
d="M547 564q13 -5 29.5 -4.5t35.5 20.5q14 2 21 0t12 -22q-13 -13 -16.5 -22t-6.5 -21q-1 -5 -6 -32t-11.5 -66l-14.5 -85.5l-16 -92.5l43.5 18.5l44.5 20.5q12 6 24.5 11t23.5 10l-25.5 148.5t-37.5 194.5l-4 -13q-2 -11 -1.5 -25.5t2.5 -34.5q-4 28 -36 19
q-24 -27 -62 -18q23 10 34 41q11 62 19.5 104l15 73.5l12.5 58.5l12.5 58.5t14.5 74l20 106.5l48.5 -249l40 -202l33.5 -167l28 -143q66 4 114 -19t80 -63q-79 44 -184 26l26.5 -143l25.5 -149q11 -51 30.5 -78t64.5 -32q-104 -9 -158 27q-28 -19 -67.5 -26.5t-90.5 -1.5
q88 11 92 109q-12 78 -20 138.5t-17 120.5q-75 -32 -162 -90q-5 -34 -9 -56.5t-4 -27.5q-2 -5 -3 -9t-3 -9q-2 -16 -4.5 -31l-5.5 -32q-13 -98 72 -109q-26 -2 -45 -2t-32.5 2.5t-23.5 8.5t-17 15q-17 -22 -47 -26t-82 1q48 5 75.5 32t39.5 77l12 59q2 5 2 10.5t1 10.5l5 24
q0 4 3 15l-4 -3q-216 -99 -312 19q-67 6 -106.5 32t-47.5 73q157 -124 491 -2l16.5 94.5l16 91l12.5 69.5t6 31q4 18 -1.5 34.5t-15.5 27.5zM392 217q-54 -22 -98 -31.5t-80 -10t-65.5 6t-53.5 16.5q-41 15 -62.5 48t-23.5 88q2 128 117 149q47 -5 72.5 -29.5t25.5 -73.5
q-10 -109 -96 -113q56 35 39 106q-10 43 21 46q-30 64 -103 33q44 -9 52 -49q-76 29 -97 -36q-11 -43 -1 -79t39 -59q35 -18 68.5 -25.5t70.5 -7.5t79.5 6t95.5 15zM364 -103q-35 1 -48.5 23.5t-15.5 56.5q0 38 36 44q35 -1 37 -38q2 -13 -10 -24.5t-33 -6.5q3 -28 43 -32
q-14 21 22 37q39 7 61 74q1 -22 -6 -46.5t-19.5 -45t-29.5 -33t-37 -9.5zM645 566q0 1 -0.5 1.5t-0.5 1.5q0 -1 0.5 -1.5t0.5 -1.5z" />
    <glyph glyph-name="B" unicode="B" horiz-adv-x="988" 
d="M113 560q29 -15 49 -12t37 10.5t34 11.5t40 -10q-10 -17 -13 -32t-3 -31v-263q19 50 66 35q29 54 66 41q51 39 120 22q79 -30 85 -135q-2 -129 -114 -145q-97 3 -97 99q7 108 93 110q-55 -34 -37 -104q8 -41 -23 -45q34 -62 104 -31q-45 7 -53 46q77 -28 97 36
q22 85 -33 140q-89 42 -147 -5q-124 -161 -55 -340q85 -138 267 -101q-166 -60 -271 56q-48 54 -68 127v-16q-1 -116 95 -158q-49 -4 -90.5 5t-69.5 43q-32 -34 -74 -42.5t-90 -3.5q29 10 48.5 29.5t31.5 41.5t17 43.5t5 36.5v481q0 14 -3 31t-14 29zM471 -176
q302 6 342 390q-36 -16 -27 38q-6 277 -276 304q369 42 449 -261q20 -17 32 14q-7 -272 -252 -432q-116 -64 -268 -53zM112 572q11 13 15 25.5t3 32.5v39q-2 51 -26 78t-67 32q101 9 155 -27q55 37 159 28q-86 -9 -92 -110v-51q0 -12 3.5 -25.5t12.5 -24.5q-12 11 -29.5 12
t-33.5 -6q-8 -4 -17 -7.5t-16 -3t-10.5 7.5t-1.5 23q-8 -28 -23.5 -30t-31.5 7zM292 741q97 74 275 20q51 -20 68.5 -47.5t-2.5 -61.5q-114 -150 -323 -67q81 -13 129.5 -3t65.5 47q13 26 35 12q73 86 -105 110q-35 2 -70.5 0t-72.5 -10zM540 651q-14 6 -26 -4q47 57 -61 96
q133 -21 87 -92zM503 636q3 3 6 5.5t5 5.5q-3 -2 -6 -4.5t-5 -6.5z" />
    <glyph glyph-name="C" unicode="C" horiz-adv-x="493" 
d="M563 -401q-76 5 -144 40t-127 92.5t-107 135t-83 166.5t-55.5 187t-24.5 197q4 31 -3.5 50t-21.5 27q67 39 125 14q23 -18 49 -21t55 8l-19 -22t-13 -20t-7.5 -26.5t-3.5 -39.5q25 -14 27.5 -41t-3.5 -60l-13 -68.5t-1 -67.5q8 -64 30.5 -126.5t54 -119.5t69 -107t76 -90
t75 -68t65.5 -40zM221 505q-26 -8 -49 -5.5t-40 18.5q-71 30 -135 -15q40 34 64 102q66 200 236 182q-29 -9 -49 -29q40 16 94 5q77 -26 83 -113q0 -108 -112 -125q-95 3 -98 86q9 91 94 93q-54 -29 -36 -88q4 -18 -2 -27t-20 -12q33 -53 100 -25q-44 6 -51 39q76 -27 95 30
q21 71 -33 120q-74 29 -123 6q-31 -38 -46 -110q-10 -61 -4 -94.5t32 -37.5zM440 531q38 113 -39 217q-44 58 -161 58q116 66 189 -2q66 3 69 54q21 -39 16 -76.5t-32 -74.5q26 -105 -26 -178q-6 -11 -12 -9.5t-4 11.5zM130 787q-32 18 -35 46.5t10 59.5q19 33 53 26
q35 -19 18 -51q-4 -14 -19.5 -19.5t-33.5 9.5q-3 -8 -4 -17t2.5 -17t13 -13.5t26.5 -4.5q-10 21 8 33.5t46.5 16.5t57 1.5t39.5 -11.5q-38 -6 -58.5 -18.5t-36.5 -24t-34.5 -17.5t-52.5 1z" />
    <glyph glyph-name="D" unicode="D" horiz-adv-x="900" 
d="M42 -155q69 -109 180.5 -128t264.5 49q97 64 146 163t54 236q-27 153 35 162q-8 78 -27 133.5t-52 88.5q27 -11 51.5 -8t46.5 18q54 28 117 -14q-26 -16 -7 -56q12 -29 21 -66.5t13 -81.5q-20 -3 -29 16q-1 -184 -55.5 -331t-162.5 -260q-96 -70 -199.5 -92t-221.5 5
q-54 20 -98.5 61.5t-76.5 104.5zM194 466q30 -15 50 -11.5t36.5 10.5t33.5 10.5t40 -10.5q-9 -15 -12 -32q83 6 166 -28q-93 19 -169 9q-1 -3 -0.5 -6t0.5 -6v-78q59 92 160 66q40 -14 60 -47t25 -87q0 -66 -29.5 -102t-86.5 -45q-95 6 -95 100q7 110 93 112
q-55 -38 -37 -105q9 -40 -25 -47q38 -61 104 -29q-42 6 -51 46q77 -30 96 36q11 42 2.5 78t-34.5 63q-115 54 -182 -44v-390q0 -59 23 -98t73 -59q-51 -5 -92.5 5t-68.5 42q-32 -32 -74 -41.5t-90 -4.5q28 10 47 29.5t31 41.5t17 44t5 38v441q-61 -39 -107 -114
q-14 -15 -26 8q-114 -265 35 -472q-153 144 -98 389q21 74 64 128t113 89l19 8v4q0 14 -2.5 30.5t-13.5 28.5zM194 477q11 13 15 26t1 31v140q-2 51 -25 78t-65 32q97 9 154 -27q27 20 67 26t92 1q-88 -7 -93 -107v-151q-2 -26 18 -52q-12 11 -29 13t-37 -5
q-8 -4 -16.5 -7.5t-15.5 -3t-11 6.5t-2 22q-5 -26 -21 -29t-32 6zM398 829q126 14 222 -36t167 -161q6 -11 20 -26.5t37 -36.5q-31 14 -59.5 13.5t-54.5 -13.5q-47 -31 -92 -2q20 15 9 37q-63 168 -249 225zM96 -49q-19 1 -32.5 17.5t-20 39.5t-6.5 48.5t7 45.5
q2 -70 37 -85q15 -13 17.5 -23t-3.5 -19q39 -6 46 20q-20 1 -28.5 15t-2.5 28q4 15 15.5 22t28.5 3q15 -8 21 -20t1 -32q-8 -32 -27 -49.5t-53 -10.5zM272 882q-2 35 19.5 50t53.5 19q37 3 48 -30q0 -36 -35 -39q-12 -3 -24 6.5t-10 30.5q-15 -1 -22 -12t-7 -31
q21 14 39 -20q13 -36 78 -51q-20 -3 -45 1t-47 14.5t-36 26.5t-12 35z" />
    <glyph glyph-name="E" unicode="E" horiz-adv-x="637" 
d="M267 -27q16 -21 34.5 -29.5t37.5 -8.5t37.5 6.5t34.5 14.5q18 8 34 7t25 -9q38 11 56 -16q-27 -11 -61 -20t-68.5 -10.5t-65 6t-48.5 29.5q-17 13 -27 25q18 -75 89 -103q-48 -4 -88.5 5t-69.5 43q-32 -34 -74 -42.5t-89 -3.5q27 10 46.5 29t31.5 41t17.5 44t5.5 37v479
q0 16 -3.5 32.5t-13.5 29.5q31 -11 52 -7t38.5 10t33 8t36.5 -11q-17 -33 -17 -65v-10l48 21t47.5 15t47 2t46.5 -17q51 -23 92 -25.5t83 14.5q-12 -35 -32.5 -62.5t-48 -41t-61 -11t-70.5 28.5q-14 9 -30.5 22t-35.5 25t-40.5 19t-45.5 4v-332q36 45 106 45
q105 -11 108 -124q-15 -94 -97 -89q-45 7 -65 33t-17 68q23 -58 85 -45q36 6 36 -24q56 28 36 98q-10 -41 -45 -46q34 72 -18 96q-71 29 -120 -22q-6 -9 -9 -18v-95q0 -28 4 -47q9 -14 23 -26l-6 10.5t-5 12.5zM104 570q11 12 15.5 25.5t2.5 33.5v20.5v4v4.5v21
q-3 97 -92 108q56 5 98 1.5t69.5 -20.5t41 -49.5t12.5 -84.5v-15q-2 -14 3.5 -26.5t13.5 -26.5q-11 12 -28.5 14t-34.5 -7l-17 -6.5t-16 -3.5t-11 6.5t-1 22.5q-8 -26 -24.5 -28t-31.5 6zM590 154q-2 8 2.5 9.5t12.5 -7.5q47 -70 24 -169q54 -68 14 -143q-2 26 -17.5 37.5
t-47.5 13.5q-17 -15 -53 -24.5t-76.5 -9.5t-79 10.5t-61.5 34.5q45 -9 85 -8.5t72.5 7.5t55.5 18.5t34 24.5q72 102 35 206zM590 546q37 104 -35 205q-23 26 -60.5 40.5t-91.5 14.5q107 61 175 -3q62 4 65 50q40 -72 -14 -140q23 -100 -24 -170q-8 -9 -12.5 -7t-2.5 10z
M274 792q-26 -11 -45.5 -8.5t-40 9t-45.5 11t-61 -3.5q14 12 38.5 22t50.5 13.5t50 -2.5t37 -25q16 12 22 23.5t1 25.5q-16 -14 -31 -8.5t-20 18.5q-14 28 17 48q23 6 38.5 -8t20.5 -35.5t-2.5 -44.5t-29.5 -35zM237 758q156 52 267 5q-20 -25 -56 -16q-11 -8 -26 -9t-35 7
q-32 17 -69 19.5t-81 -6.5zM291 785q21 10 25 31q5 24 27 20q2 17 12 26.5t27 5.5q14 -1 19 -11.5t3 -21.5q-11 -44 -113 -50z" />
    <glyph glyph-name="F" unicode="F" horiz-adv-x="635" 
d="M110 550q31 -11 52.5 -7.5t38.5 9.5t32.5 8t36.5 -12q-10 -16 -13 -31t-3 -31v-10q49 22 92.5 20.5t93.5 -18.5q40 -9 68.5 -11.5t50 0.5t39 11.5t35.5 22.5q-8 -32 -25.5 -58t-44.5 -41t-62 -16t-76 18q-18 6 -38 18l-41 23.5t-44 19.5t-48 5v-455q0 -120 95 -157
q-48 -5 -90 3.5t-70 42.5q-32 -33 -73.5 -41.5t-88.5 -3.5q28 10 47.5 29t31.5 41t17.5 44t5.5 38v478q0 15 -3.5 31.5t-15.5 29.5zM107 561q11 13 15.5 26.5t3.5 31.5v51q-5 100 -92 108q55 6 97 2t69.5 -21t40.5 -49t12 -84v-17q0 -12 4 -25t14 -27q-11 12 -29.5 14
t-35.5 -7q-7 -4 -16 -7.5t-16 -2.5t-11 7t-2 22q-6 -26 -22.5 -29t-31.5 7zM592 537q36 105 -35 206q-22 26 -60.5 39t-92.5 15q106 61 177 -2q61 3 63 50q41 -71 -14 -143q24 -98 -22 -166q-7 -10 -12.5 -8.5t-3.5 9.5zM277 783q-26 -11 -45.5 -8.5t-40 9t-46 11.5
t-61.5 -2q15 11 39 20.5t50.5 12.5t50 -2.5t36.5 -23.5q34 21 24 46q-17 -13 -31.5 -7t-19.5 18q-14 32 17 48q23 6 39 -8t21 -36t-2.5 -44.5t-30.5 -33.5zM241 750q155 53 265 4q-20 -25 -57 -14q-22 -18 -59 -3q-62 33 -149 13zM294 777q11 5 16.5 12.5t8.5 17.5
q3 23 27 20q2 16 11.5 26t26.5 7q14 -2 18.5 -12t2.5 -23q-7 -42 -111 -48z" />
    <glyph glyph-name="G" unicode="G" horiz-adv-x="954" 
d="M361 310q78 -40 168 -51.5t195 6.5q236 51 361 2q-17 29 -55 52.5t-89 36.5t-109.5 12.5t-116.5 -19.5q-51 -13 -98 -23.5t-91 -17t-85 -6.5t-80 8zM515 744q192 0 202 -193q-1 -57 -26.5 -99.5t-79.5 -69.5q-125 -52 -180 88q-27 129 68 171q109 36 141 -77
q-54 59 -118 4q-18 -14 -31.5 -11.5t-20.5 24.5q-26 -35 -24.5 -73.5t28.5 -76.5q-9 58 29 88q-2 -57 14.5 -84t51.5 -26q92 9 129 102q24 225 -183 233zM869 -20q-20 1 -34 19t-21.5 43t-8.5 52.5t6 49.5q4 -38 13.5 -61.5t29.5 -33.5q16 -11 19 -22.5t-9 -22.5q23 -2 35 5
t17 19q-22 1 -30 15.5t-3 25.5q5 21 17 27.5t32 3.5q33 -18 22 -55q-8 -33 -29 -52.5t-56 -12.5zM716 477q20 55 10 109t-47 107q-49 59 -164 59q115 69 188 -1q33 1 51.5 14.5t19.5 39.5q20 -40 16 -77t-33 -75q27 -103 -25 -178q-8 -11 -13 -9.5t-3 11.5zM819 267
q-11 -13 -19 -34t-8 -41v-30.5t-1 -23.5t-1.5 -23t-0.5 -30q0 -37 8.5 -60t23 -37.5t33.5 -23.5t40 -16q-32 -13 -74 -16t-79.5 13t-63 55.5t-24.5 111.5q0 20 1 38.5t1 36.5q1 15 -4 28.5t-22 25.5q25 -1 43.5 1t29.5 3q9 0 19 3.5t18.5 4t13 -4t1.5 -19.5q3 13 8.5 20.5
t13.5 11t18.5 4.5t24.5 2zM559 786q-198 -62 -267 -242q-5 -11 -1.5 -20t12.5 -20q-46 -29 -99 1q-57 33 -122 2q26 23 40.5 39.5t20.5 27.5q152 239 416 212zM811 -85q-77 -56 -149 -78.5t-134.5 -17.5t-113.5 33.5t-87 75.5t-54.5 109t-15.5 132q13 63 2.5 97t-42.5 37
q7 67 29 113t57 71q-15 -5 -28.5 -8.5t-27 -3.5t-26 5.5t-24.5 17.5q-15 7 -33 10t-35 1t-32 -8t-25 -15q28 -11 7 -47q-13 -25 -21.5 -56t-15.5 -67q23 -5 33 13q-11 -56 -4 -122t29.5 -131.5t60 -126t88 -105.5t112.5 -70.5t133 -21.5t151 42t166 121zM770 -88
q-47 -29 -79.5 -35t-48.5 10q-8 11 -10.5 21.5t8.5 19.5q12 15 26 11.5t28 -16.5q16 18 34 0q16 -14 42 -11z" />
    <glyph glyph-name="H" unicode="H" horiz-adv-x="946" 
d="M425 335l-40 -19v-394q-1 -120 96 -158q-50 -5 -91 3.5t-70 41.5q-32 -32 -74 -41t-90 -3q28 10 47.5 29t31.5 41.5t17.5 44.5t5.5 37v359q-120 -23 -196 34q-18 10 -29 27.5t-11 40.5q0 32 21 53t50 21q28 0 49 -21t21 -53q0 -30 -21 -53q40 -30 116 -21v94q0 15 -3 32
t-14 29q30 -15 50 -12t37 10.5t34 11t40 -10.5q-11 -16 -14 -31t-3 -31v-58l37 16q19 8 35.5 16t33.5 13q3 1 6 2.5t6 2.5q8 2 17 3t20 2q106 18 183 -58v63q0 15 -4 32t-15 29q30 -15 50 -12t37 10.5t34 11t40 -10.5q-10 -16 -13.5 -31t-3.5 -31v-474q0 -121 96 -158
q-49 -5 -90 3.5t-70 41.5q-33 -32 -75 -41t-90 -3q28 10 48 29t32.5 41.5t18 44.5t5.5 37v358q-46 113 -189 103q-27 -6 -53 -18q-56 -57 -32 -141q19 -66 95 -36q-6 -40 -51 -46q70 -31 103 30q-31 4 -22 46q16 70 -39 105q89 -3 96 -110q0 -98 -98 -101q-115 18 -116 145
q2 30 9.5 54t21.5 41zM239 471q22 21 19 58v140q-6 100 -93 110q51 4 89.5 -2.5t66.5 -25.5q55 38 159 28q-90 -9 -93 -110v-151q0 -26 18 -51q-13 11 -30.5 13t-34.5 -6q-8 -4 -16.5 -7.5t-16 -2.5t-11.5 7t-2 22q-6 -27 -22 -29.5t-33 7.5zM702 471q12 11 16.5 25t4.5 33
q-2 9 -2 18.5v19.5v102q-5 99 -93 110q51 4 89.5 -2.5t66.5 -25.5q56 38 159 28q-87 -9 -93 -110v-151q0 -26 18 -51q-26 24 -65 7q-8 -4 -16.5 -7.5t-16 -2.5t-11.5 7t-1 22q-7 -27 -23 -29.5t-33 7.5z" />
    <glyph glyph-name="I" unicode="I" horiz-adv-x="372" 
d="M101 459q33 -15 54 -12t37.5 10t32.5 10.5t39 -9.5q-11 -16 -14 -32t-3 -30v-480q0 -120 97 -158q-50 -5 -92 4t-70 43q-33 -34 -75 -42.5t-91 -2.5q29 10 48.5 29.5t31.5 41.5t17.5 44t5.5 37v485q0 15 -3.5 32t-14.5 30zM99 467q11 14 15 27.5t4 31.5q0 11 -1 20t-1 18
v26v18v60q-5 100 -94 109q53 5 91.5 -2t67.5 -24q55 37 160 28q-89 -9 -94 -111v-62v-18v-72q0 -26 19 -52q-13 11 -31.5 13.5t-35.5 -5.5q-8 -4 -16.5 -7.5t-15.5 -2.5t-10.5 7t-1.5 22q-8 -27 -24.5 -29.5t-31.5 5.5zM412 -231q-16 -11 -37 -7t-41.5 17.5t-37 32.5
t-24.5 39q23 -25 45.5 -35.5t40.5 -5.5q38 2 35 -23q37 21 25 46q-17 -13 -32 -7.5t-19 19.5q-15 31 17 48q34 9 51 -25q13 -30 10 -56t-33 -43zM212 787q-26 -11 -46.5 -8t-41 9t-44.5 9.5t-58 -6.5q3 13 25.5 24t51 15t56 -1.5t40.5 -24.5q34 21 23 49q-17 -14 -30.5 -8
t-18.5 17q-8 17 -3 29t19 21q24 6 40 -8.5t20.5 -36.5t-3 -45t-30.5 -35z" />
    <glyph glyph-name="J" unicode="J" horiz-adv-x="799" 
d="M129 124q68 206 226 164q47 -16 71.5 -55.5t27.5 -101.5q-1 -146 -135 -169q-112 3 -112 117q7 125 110 130q-64 -39 -44 -123q4 -24 -1.5 -37t-25.5 -16q40 -74 120 -36q-50 9 -59 55q45 -17 72 -7.5t39 48.5q28 97 -38 162q-171 85 -251 -131zM498 -184q-40 -8 -62 14
t-32 57q-11 42 24 60q20 3 33.5 -4t19.5 -28q5 -14 -4.5 -30t-32.5 -16q9 -31 55 -25q-19 22 13 49q44 20 47 100q8 -23 8 -53t-8 -57t-23.5 -46.5t-37.5 -20.5zM573 460q12 15 16.5 35t4.5 38v66q0 18 -6 43.5t-20.5 51t-37.5 48t-56 34.5q57 6 105.5 -4.5t86.5 -48.5
q33 38 81 48.5t105 6.5q-56 -23 -83.5 -68t-27.5 -117v-57q0 -19 4 -37t15 -37q-24 -17 -42.5 -14.5t-38.5 9.5t-44.5 11t-61.5 -8zM569 444q19 11 37.5 8t27.5 -34q-3 18 1.5 25.5t13 8t19.5 -3.5t20 -8q20 -10 40 -8t33 16q-20 -32 -20 -59v-343q2 -91 -27.5 -156.5
t-88 -108t-145 -62.5t-198.5 -19q87 5 146 27t95 58t51.5 85.5t15.5 109.5v44v70.5t0.5 83.5t0.5 84t0.5 70.5t1.5 44.5q1 21 -4.5 37t-19.5 30zM199 275q-78 -94 -97.5 -195.5t22.5 -210.5q100 -164 314 -119q-196 -69 -318 65q-60 69 -81.5 157.5t-4.5 200.5q25 80 81 58
q20 33 40 44t44 0z" />
    <glyph glyph-name="K" unicode="K" horiz-adv-x="747" 
d="M98 561q30 -15 50.5 -11.5t37.5 11t33.5 11t39.5 -10.5q-11 -17 -14 -31.5t-3 -31.5v-160q28 13 50 46t45.5 76t53 92t73.5 94q21 20 35 42t15 40.5t-13 33t-49 19.5q111 26 146 -11q86 42 149 11q-56 -10 -111 -53l-24.5 -21.5t-23.5 -21.5q78 19 135 -48q23 -43 12 -77
t-52 -58q-98 -47 -144 27q28 -16 57 -10.5t55 31.5q28 24 50 1q20 30 12.5 56.5t-36.5 48.5q13 -41 -16 -67q-11 80 -77 66q-25 -7 -42.5 -18t-33.5 -25l-32 -33q-29 -30 -49 -56t-35 -52q97 -45 175 -157.5t135 -294.5q134 -315 228 -331q-64 -22 -117 40q-29 -17 -59 -3.5
t-62 55.5q-117 142 -147 431q-6 -19 -13.5 -31.5t-15.5 -20.5q5 85 -27 161.5t-104 142.5q-16 -28 -29.5 -55t-29.5 -53t-36 -51t-48 -48v-230q-1 -119 96 -159q-49 -5 -90.5 3.5t-69.5 42.5q-33 -32 -74.5 -41t-89.5 -4q28 10 47.5 29t32 41t18 44t5.5 38v481
q0 15 -3.5 31.5t-15.5 28.5zM98 574q11 11 15 24.5t4 32.5q0 17 -0.5 19.5t-1 1.5t-1 1t-0.5 19q-6 100 -93 109q101 12 157 -27q27 20 66.5 27.5t92.5 0.5q-44 -3 -68.5 -30t-26.5 -78v-22.5t0.5 -4t0.5 -4v-22.5q-1 -12 3.5 -25t15.5 -24q-14 9 -31.5 11t-32.5 -6
q-8 -4 -17 -7.5t-16.5 -3.5t-12 6t-3.5 21q-6 -26 -21.5 -27.5t-29.5 8.5zM811 -147q67 -186 215 -115q28 29 36.5 63.5t-3.5 78.5q-20 64 -96 36q11 38 51 47q-69 30 -101 -31q31 -8 21 -45q-8 -37 0.5 -62.5t37.5 -42.5q-86 1 -96 108q0 50 25.5 75t73.5 27
q114 -19 115 -147q-6 -104 -85 -134q-69 -16 -117.5 18.5t-76.5 123.5zM502 161q-22 3 -19 32q-12 9 -16.5 25t-3.5 38q0 103 -81 195q57 -51 87.5 -123t32.5 -167z" />
    <glyph glyph-name="L" unicode="L" horiz-adv-x="367" 
d="M720 -285q60 -11 107.5 -17.5t88 -6t77.5 9.5t76 29q34 26 45 65t-3 87q-23 74 -108 41q6 22 19.5 35.5t37.5 17.5q-76 34 -114 -34q34 -6 25 -51q-21 -80 42 -119q-48 2 -74.5 32.5t-32.5 92.5q0 108 111 113q63 -11 95 -51.5t33 -112.5q-4 -118 -93 -152
q-29 -12 -61.5 -19t-72.5 -6t-89 11.5t-109 34.5zM418 -215q249 -118 427.5 -136t285.5 67q-8 -52 -52 -80.5t-119 -34.5q-54 -69 -140.5 -73.5t-206.5 52.5q-383 284 -592 164q27 34 64.5 58t87 31.5t110.5 -3.5t135 -45zM120 487q14 14 17 33t3 37v56q0 17 -5.5 41.5
t-19 49.5t-35.5 46.5t-54 32.5q54 8 101.5 -2.5t82.5 -47.5q32 37 78.5 46t103.5 4q-109 -40 -109 -175v-50q0 -17 4 -34.5t15 -36.5q-25 -14 -42.5 -9.5t-36 12.5t-42 11t-61.5 -14zM123 475q17 8 35 5t26 -32q-3 18 1 25t12 7.5t18.5 -3.5t19.5 -9q20 -9 39 -6.5t33 15.5
q-10 -16 -15 -29.5t-5 -27.5v-39v-76.5t-0.5 -95.5t-0.5 -95.5v-76.5v-39q1 -52 -8 -78.5t-25.5 -39t-39.5 -16.5t-51 -10.5t-60.5 -20.5t-66.5 -47q24 34 43.5 52t33 34t21 36.5t7.5 58.5v47.5v79v94t0.5 94t0.5 78.5t1 47q0 21 -4 37t-15 31z" />
    <glyph glyph-name="M" unicode="M" horiz-adv-x="1193" 
d="M342 579q15 -13 26.5 -13t23 4t25.5 6.5t34 -4.5v1q38 -14 57.5 -11.5t32.5 9.5t26.5 10.5t40.5 -8.5q-2 -17 0.5 -32.5t9.5 -31.5l64 -155l113 241q1 4 9 26t14 49t5 53t-17 40q29 -12 46.5 -34t24 -47.5t3.5 -51.5t-15 -47l-82 -168l-81 -168l-48 -131l-161 395
q-7 16 -16 31.5t-25 28.5q-23 -28 -33 -51l-20 -70q-1 -5 -2 -8.5t-2 -8.5q-2 -5 -11.5 -39l-23 -82.5l-28.5 -104l-28.5 -104l-22.5 -82.5t-10 -39t-6 -18t-6.5 -29.5t3.5 -33t23 -27.5q-29 -3 -51 0.5t-34.5 15.5t-13.5 34t11 57q1 4 7 24.5l14.5 51.5l19.5 69.5l22 78.5
l21.5 78.5l19 69.5l14 51.5t6.5 23.5q1 5 3 9.5t4 9.5l7 24q2 8 5 18.5t6 19.5q6 19 4.5 39t-8.5 31zM897 575q23 -10 39.5 -11t28.5 1.5t21.5 8t19.5 8.5t21.5 2.5t27.5 -9.5q-6 -17 -6.5 -32t2.5 -32l89 -479q21 -121 125 -159q-48 -5 -90 4.5t-77 42.5q-24 -33 -64.5 -42
t-88.5 -4q26 10 41.5 30t23 42.5t9 44.5t-1.5 37l-45.5 242.5l-45.5 243.5q-3 16 -9 32t-20 29zM348 582q12 1 21.5 16t15 34t7 38t-2.5 29l-9 22.5t-15 23t-27 19t-45 11.5q48 5 89 -1.5t76 -26.5q38 41 142 29q-81 -10 -46 -109l6 -16q1 -1 2 -4q2 -6 7 -16q11 -28 39 -53
q-17 13 -34.5 14.5t-31.5 -6.5q-6 -4 -13.5 -7.5t-15 -3t-13.5 6.5t-10 22q2 -10 -6.5 -20t-26.5 -3q-20 7 -35 5t-27 -6t-23 -5.5t-24 7.5zM894 584q8 13 9.5 26t-2.5 33q-2 5 -3.5 12t-3.5 14v2l-2 10q-2 13 -1 7.5t3 -14.5t3 -14t-2 8q-1 0 -1 1v2q-13 49 -40 75t-72 31
q97 12 160 -27q47 40 151 28q-85 -9 -72 -109q2 -13 3 -17l1 -4v2.5v2.5l0.5 -4t3.5 -16q3 -26 26 -52q-14 11 -31 12.5t-33 -6.5l-15 -6.5t-15 -3t-12 6t-6 19.5q-2 -23 -18 -25t-31 6zM60 85q-16 -109 70 -192q52 -45 157 -27q-95 -80 -171 -28q-61 -16 -55 -60
q-51 62 -9 139q-41 91 -6 168q5 10 10 9t4 -9zM455 549q57 -108 35 -259q-36 -170 0 -257q-29 43 -40.5 108.5t-5.5 153.5q19 73 21 136t-10 118zM883 547q-14 -56 -12 -119t21 -136q8 -88 -3.5 -153t-40.5 -109q36 89 0 257q-24 152 35 260zM163 -103q-38 23 -55.5 53.5
t-16 56t22 39t59.5 2.5q16 -6 19 -17.5t-2 -21t-15.5 -14.5t-21.5 3q-10 6 -13.5 16.5t7.5 23.5q-11 7 -25 -1.5t-15 -23.5q20 -2 20 -34q-7 -33 36 -82z" />
    <glyph glyph-name="N" unicode="N" horiz-adv-x="724" 
d="M250 699q15 -71 58 -136t117 -125l50.5 -46t45.5 -48q50 -53 64 -126v295q2 36 -17 56q11 9 23.5 8t25.5 -4.5t26.5 -5t28.5 7.5q-17 -26 -17 -50v-535q1 -5 0.5 -18.5t3 -29t13.5 -32t31 -27.5q-29 -3 -51.5 0.5t-38 15.5t-23 34t-5.5 57v126l-4 -21.5l-4 -21.5
q0 -33 -18 -69q-44 -68 -145 -51q-118 28 -113 139q13 47 42 64.5t73 6.5q101 -30 86 -112q-22 57 -92 57q-40 0 -38 32q-67 -18 -50 -90q16 39 55 36q-46 -63 12 -96q77 -40 140 1q31 38 37 76q-11 46 -35 83.5t-66 66.5q-193 75 -252 221q-20 55 -18.5 90.5t24.5 55.5
q-18 90 31 115zM201 578q-18 -21 -17 -56v-530q6 -96 91 -105q-24 -3 -42 -2.5t-32.5 3.5t-27.5 9t-26 16q-14 -10 -25 -16t-24.5 -9t-30.5 -3t-42 2q84 9 89 106v541q0 24 -17 50q15 -9 28.5 -7.5t26.5 5t25.5 4.5t23.5 -8zM672 583q-12 -9 -24 -8t-25 4.5t-27 5t-28 -7.5
q17 26 17 51v47q-6 97 -91 106q25 2 42.5 2t31 -3t24.5 -9t25 -15q13 9 25.5 15.5t27 9.5t32.5 3t43 -2q-85 -9 -90 -106v-36q-2 -19 2 -32t15 -25zM98 593q20 20 18 56v35q-6 97 -91 107q25 2 43 1.5t32.5 -3.5t27 -8.5t25.5 -14.5q13 9 25 15t25.5 8.5t30.5 2t41 -2.5
q-84 -9 -90 -106v-47q0 -22 17 -50q-14 9 -28 8t-27 -4.5t-25 -4.5t-24 8zM264 772q34 5 50 -14.5t22 -50.5q4 -36 -25 -47q-33 -5 -41 28q-3 13 6 26t29 11q-6 29 -45 24q16 -19 -15 -38q-35 -15 -45 -79q-5 19 -2.5 43.5t11 46t22.5 36t33 14.5z" />
    <glyph glyph-name="O" unicode="O" horiz-adv-x="873" 
d="M268 612q57 157 193 127q78 -26 84 -123q-3 -115 -113 -132q-97 4 -97 91q7 97 92 100q-54 -28 -37 -95q9 -36 -22 -41q31 -57 102 -28q-21 4 -34.5 14.5t-15.5 27.5q73 -25 95 33q21 77 -33 127q-148 65 -214 -101zM445 -101q-15 -11 -35.5 -7t-40.5 17t-36.5 32
t-24.5 39q49 -51 86 -39q37 0 34 -25q36 21 24 48q-17 -14 -31.5 -8.5t-18.5 17.5q-8 17 -3 28.5t19 21.5q18 4 30 -2.5t21 -22.5q14 -29 11 -55.5t-35 -43.5zM30 549q44 12 75 57q128 178 338 175q245 0 354 -211q17 -32 10.5 -64t-35.5 -63q6 -155 -100 -158
q36 450 -234 469q-123 -5 -170 -160q-7 -25 16 -46q-75 -32 -133 1q-63 17 -121 0zM35 542q33 8 62 6t53 -11q37 -17 72.5 -15.5t66.5 19.5q-61 -52 -67 -124q-27 -263 53 -449q121 -175 344 -90q-251 -108 -438 59q-79 81 -115 194.5t-31 260.5q1 27 3 54.5t5 56.5
q11 29 -8 39zM672 272q118 12 109 168q22 23 31 50.5t3 58.5q73 -94 32 -140q39 -265 -137 -471q-169 -113 -314 -61q195 -44 256 240q9 50 14 89.5t6 65.5z" />
    <glyph glyph-name="P" unicode="P" horiz-adv-x="775" 
d="M112 579q22 22 19 58v36q-6 100 -95 109q60 6 104 4.5t73 -18.5q33 5 66.5 14t68.5 26q42 19 59 -5q256 37 325 -149q57 15 18 -127q-35 -87 -110 -129.5t-188 -42.5q92 17 138.5 77.5t48.5 169.5q-6 -22 -36 -21q-23 189 -238 158q-66 -13 -117 -15q12 -30 12 -79v-18
q0 -12 4 -25.5t14 -26.5q-13 11 -30 13t-34 -7q-8 -3 -17.5 -6t-16.5 -2.5t-11 6.5t-2 22q-7 -27 -22.5 -29.5t-32.5 7.5zM111 571q34 -15 55 -12t37.5 9.5t32 10t38.5 -8.5q-10 -17 -13.5 -32t-3.5 -32v-478q0 -121 97 -158q-50 -4 -91.5 5t-70.5 41q-32 -32 -74 -41
t-91 -3q28 9 47.5 28t32 41.5t18 44.5t5.5 38v485q0 15 -3.5 32.5t-15.5 29.5zM392 373q-84 24 -90 123q2 116 121 134q103 -6 103 -93q-10 -98 -101 -102q58 30 41 97q-9 36 23 42q-35 58 -107 27q44 -6 53 -42q-80 26 -100 -34q-22 -77 33 -128q150 -64 221 93
q-64 -151 -197 -117zM594 501l-5 -11q2 3 2.5 6t2.5 5z" />
    <glyph glyph-name="Q" unicode="Q" horiz-adv-x="868" 
d="M1222 -80q-13 -91 -72.5 -164.5t-165.5 -130.5q-238 -81 -473 94q-85 67 -158 71q12 -14 -7 -27q-189 -54 -108 -286q-107 121 -25 274q47 72 135 94q-91 19 -171 92q-79 81 -115 194.5t-31 260.5q1 27 3 54.5t5 56.5q11 29 -8 39q33 8 62 6t53 -11q37 -17 72.5 -15.5
t66.5 19.5q-61 -52 -67 -124q-27 -263 53 -449q68 -101 169 -116q48 -5 96.5 -13.5t95.5 -25.5q387 -135 590 107zM457 739q78 -26 84 -123q-3 -115 -113 -132q-97 4 -97 91q7 97 92 100q-54 -28 -37 -95q9 -36 -22 -41q31 -57 102 -28q-21 4 -34.5 14.5t-15.5 27.5
q73 -25 95 33q21 77 -33 127q-104 44 -166 -21q-30 -37 -48 -98q-7 -25 16 -46q-75 -32 -133 1q-58 15 -112 2q37 13 66 55q128 178 338 175q245 0 354 -211q17 -32 10.5 -64t-35.5 -63q6 -155 -100 -158q36 450 -234 469q-46 -1 -83 -26q46 24 106 11zM668 272
q118 12 109 168q22 23 31 50.5t3 58.5q73 -94 32 -140q39 -265 -137 -471q-169 -113 -314 -61q195 -44 256 240q9 50 14 89.5t6 65.5zM317 -555q-28 2 -47 26t-29 57.5t-10 70.5t10 66q5 -100 57 -125q43 -34 17 -61q58 -8 70 33q-15 0 -25.5 6t-16.5 14.5t-7 18.5t2 18
q13 48 65 39q23 -11 30.5 -30t1.5 -45q-6 -23 -16 -41.5t-24 -30.5t-33.5 -16.5t-44.5 0.5zM26 549l9 2z" />
    <glyph glyph-name="R" unicode="R" horiz-adv-x="643" 
d="M105 463q32 -10 53 -6t38 10t32.5 8t35.5 -12q-8 -17 -10.5 -32.5t-2.5 -31.5v-470q-4 -120 95 -158q-51 -4 -92 5t-68 42q-32 -33 -73.5 -41.5t-90.5 -3.5q28 10 47.5 29.5t31.5 41.5t17.5 44t5.5 37v477q0 15 -3.5 32t-15.5 29zM104 474q20 23 17 57v139q-6 99 -92 111
q81 7 132 -15q67 1 139 33q34 17 48 -4q208 33 265 -120q49 11 13 -106q-57 -139 -242 -139q75 14 112.5 63t39.5 139q-4 -18 -28 -17q-21 155 -194 128q-59 -11 -104 -13q40 -45 38 -137v-72q0 -12 3.5 -25t12.5 -26q-11 11 -28 13t-33 -6q-8 -4 -17 -7t-16 -3t-11 5.5
t-2 19.5q-7 -23 -23 -24.5t-30 6.5zM779 -397q-66 -15 -111 54q-63 -25 -115 65q-51 77 -74.5 185.5t-22.5 252.5q-8 -15 -17 -26.5t-16 -19.5q33 182 -118 340q103 -50 174.5 -174.5t109.5 -325.5q50 -161 97 -249t93 -102zM348 720q136 3 145 -136q-3 -87 -75 -125
q-94 -35 -131 62q-11 48 1.5 78.5t46.5 47.5q78 22 102 -55q-39 42 -84 3q-26 -22 -39 7q-36 -51 4 -107q-6 42 21 63q-2 -41 10 -61t36 -19q70 6 93 74q18 162 -130 168zM852 -389q-16 -11 -36.5 -7t-40.5 17.5t-37 33t-24 39.5q45 -52 84 -43q37 1 37 -25q34 24 23 48
q-17 -11 -31.5 -6t-18.5 17q-17 32 17 50q16 3 28.5 -3t20.5 -23q13 -30 10.5 -55.5t-32.5 -42.5zM407 120q-19 6 -15 34q-9 11 -12.5 26t0.5 38q12 102 -58 202q51 -57 73 -131.5t12 -168.5zM266 468l-2 2z" />
    <glyph glyph-name="S" unicode="S" horiz-adv-x="693" 
d="M117 130q55 173 191 139q78 -30 84 -131q-4 -126 -112 -145q-97 6 -97 98q10 107 94 110q-56 -31 -38 -103q5 -21 -1 -31.5t-20 -13.5q16 -32 40.5 -38.5t59.5 8.5q-41 7 -51 46q75 -28 95 34q22 84 -33 139q-142 72 -212 -112zM380 522q-19 1 -32 17t-19.5 38.5t-6.5 48
t6 44.5q2 -32 12 -53.5t28 -29.5q27 -23 11 -42q20 -2 31.5 2.5t15.5 19.5q-21 0 -29 13.5t-3 24.5q10 34 45 27q30 -13 22 -50q-9 -30 -27.5 -49t-53.5 -11zM527 511q34 105 -35 205q-42 50 -151 52q106 61 175 -1q60 1 63 49q37 -71 -16 -139q14 -50 8 -91t-29 -76
q-8 -9 -13 -7t-2 8zM420 218q54 -69 54 -135q3 -41 28 -54q4 -19 13 -28.5t26 -14.5q-6 117 -121 232zM178 261q-131 -159 -63 -345q82 -137 264 -99q-84 -29 -150 -16t-117 72q-101 116 -73 300q20 70 68 49q31 57 71 39zM147 -186q239 -119 389 82q55 124 -23 246
q-70 80 -175 172q-181 131 -132 331q45 120 179 106q-95 -47 -79 -150q5 -45 45 -95.5t119 -107.5q90 -54 139.5 -124.5t63.5 -159.5q6 -115 -28.5 -201.5t-112.5 -146.5q-108 -50 -203.5 -38.5t-181.5 86.5z" />
    <glyph glyph-name="T" unicode="T" horiz-adv-x="731" 
d="M647 468q37 105 -36 205q-44 54 -152 54q106 63 177 0q62 1 65 50q39 -73 -15 -142q13 -51 6.5 -92t-29.5 -76q-6 -11 -12 -9t-4 10zM101 465q2 -8 -3.5 -10t-11.5 9q-49 68 -23 168q-56 69 -16 142q3 -48 65 -50q70 64 178 1q-111 -2 -154 -55q-72 -99 -35 -205zM42 568
q2 -44 14.5 -79t37.5 -62q24 -32 13 -59q19 -33 0 -57q-76 90 -65 257zM708 573q5 -82 -11 -147t-54 -111q-20 26 0 57q-11 27 14 60q46 51 51 141zM288 463q30 -15 50.5 -11.5t37.5 10.5t33.5 11t39.5 -10q-9 -17 -12.5 -32t-3.5 -32v-474q0 -118 95 -156q-48 -5 -89.5 3.5
t-69.5 41.5q-32 -33 -74 -41.5t-90 -3.5q28 10 47.5 29t31.5 41.5t17 44.5t5 37v481q0 16 -3.5 32t-14.5 29zM288 475q21 22 18 57v39h-1v24v18v59q-5 102 -92 109q103 11 156 -26q55 37 159 28q-87 -10 -94 -110v-61v-18v-71q0 -14 4.5 -26.5t13.5 -27.5q-11 13 -29 15
t-35 -6q-8 -4 -16.5 -7.5t-16 -3t-11.5 7t-1 22.5q-8 -27 -24 -29t-31 7zM182 780q-37 -3 -68 -32q-48 -6 -51 32q26 6 36 -10q29 28 83 10zM564 783q54 18 83 -10q12 16 36 8q-3 -35 -51 -31q-30 30 -68 33z" />
    <glyph glyph-name="U" unicode="U" horiz-adv-x="619" 
d="M386 699q-18 -84 -14.5 -180.5t31.5 -208.5q11 -136 -6 -235.5t-62 -164.5q52 133 0 393q-20 115 -7.5 213.5t58.5 182.5zM273 468q-14 -8 -30 -6t-22 29q2 -15 -2.5 -21.5t-12 -7t-16.5 3l-17 6.5q-17 8 -35 6.5t-29 -14.5q18 27 17 54v71v10t1 9v61q-6 101 -94 109
q104 12 160 -28q53 39 158 28q-91 -9 -94 -109v-61v-18v-24q0 -11 -1 -20.5t-1 -17.5q0 -20 3.5 -33t14.5 -27zM108 458q14 8 30 5t23 -29q-2 16 2 22.5t11.5 7t16.5 -3t17 -7.5q17 -8 35 -6t29 13q-19 -24 -17 -52v-35v-68.5t-0.5 -85.5t-0.5 -85.5v-68.5v-35q1 -46 -7 -70
t-22.5 -35t-35.5 -15t-46.5 -9.5t-54 -18.5t-59.5 -42q22 30 39.5 46.5t30 31t19 33t6.5 52.5v42.5v70.5v84.5t0.5 84.5t0.5 70.5t1 42.5q0 20 -3.5 33t-14.5 27zM586 468q-12 -9 -25 -7.5t-27 5t-28.5 4.5t-29.5 -8q10 14 14 27.5t4 25.5v71v19v63q-6 99 -94 109q26 2 44 2
t32 -3t26 -8.5t25 -14.5q14 9 27.5 15t28.5 9t34 3.5t45 -2.5q-88 -9 -94 -109v-61v-18v-24v-20.5t-1 -17.5q0 -20 4 -33t15 -27zM478 454q12 9 24.5 8t26 -4.5t28 -4.5t29.5 9q-18 -29 -18 -54v-71v-19v-299q0 -6 -0.5 -19.5t3.5 -30t14 -33t33 -27.5q-30 -3 -53.5 -0.5
t-40 14.5t-24.5 35t-6 60v296v19v23v40q2 19 -1.5 32.5t-14.5 25.5zM108 -138q36 16 62.5 14.5t48 -13.5t39 -31t36.5 -37t41 -31t51 -14q-29 -14 -64.5 -12.5t-70 14.5t-64.5 36.5t-48 55.5q-33 -14 -42 -33t-1 -38q13 9 26.5 11.5t24.5 -0.5t18.5 -9.5t9.5 -14.5
q14 -22 6.5 -39t-31.5 -29q-53 -10 -80 35q-11 19 -15.5 38.5t-1 37t16.5 32.5t38 27zM293 -178q139 -30 203 68q10 12 21.5 13t28.5 -4q17 -6 29 -7t30 -1q-39 -12 -65 -38q-32 -44 -67.5 -65t-69 -23t-63 13t-47.5 44zM189 -110q98 39 123 5q7 -10 7.5 -21t-10.5 -19
q-14 -10 -27.5 -5.5t-22.5 18.5q-19 -14 -33 6q-13 16 -37 16z" />
    <glyph glyph-name="V" unicode="V" horiz-adv-x="463" 
d="M369 767q-62 -114 -35 -269q36 -173 0 -264q29 45 41.5 111.5t4.5 157.5q-38 152 -11 264zM637 753q-19 3 -36 -9.5t-30 -33.5t-19.5 -46.5t-4.5 -46.5q10 35 25 53t35 23q34 14 22 36q42 -2 42 -32q-20 5 -31.5 -7t-10.5 -23q0 -37 37 -40q35 9 35 46q0 32 -14.5 55
t-49.5 25zM117 473q11 12 15.5 26t3.5 33q-2 32 -10 66.5t-14 71.5q-10 53 -29.5 80.5t-64.5 32.5q102 9 159 -28q57 41 160 28q-91 -8 -94 -110q5 -30 8.5 -72t14.5 -81q0 -13 4 -25.5t15 -26.5q-13 13 -30.5 14.5t-35.5 -5.5q-8 -4 -17.5 -7.5t-16.5 -3t-11 7t-2 21.5
q-6 -26 -22.5 -29t-32.5 7zM271 421q-7 25 12 35q-22 24 -65 5q-36 -20 -50 0q-10 -8 -20.5 -9t-23.5 8q17 -14 27 -31t15 -34l160 -838l37.5 206.5l42.5 225.5l43 225.5l38 206.5q11 30 35 39q-20 5 -35.5 0.5t-28.5 -17.5q-33 -9 -38 18q3 -18 3.5 -32.5t-0.5 -27.5
l-68 -397l-43 209zM521 465q-9 13 -15 28.5t-2 34.5q2 9 4 19l4 20l5 25q0 10 4 18q2 16 4.5 30.5t4.5 28.5q25 102 116 113q-51 5 -80.5 1t-47.5 -28q-14 20 -40 25t-78 0q86 -9 74 -111q-8 -34 -12 -61q-2 -5 -3 -9.5t-1 -9.5l-7.5 -37.5t-6.5 -36.5q-2 -13 -6.5 -21.5
t-15.5 -22.5q5 -18 11.5 -20.5t22.5 -2.5q19 22 35.5 22t29.5 -5z" />
    <glyph glyph-name="W" unicode="W" horiz-adv-x="889" 
d="M371 17l77 426l77 428l34.5 -173l26.5 -135l22.5 -116l22.5 -117l26.5 -137.5l34.5 -176.5l62 345q2 12 1.5 27.5t-5.5 33.5q10 -26 43 -15q25 28 69 17q-27 -10 -39 -41l-74.5 -417.5l-73.5 -417.5l-175 885l-25 -141.5l-27 -142.5l-107 -601l-79 403.5l-77 403.5
q-4 18 -15.5 35.5t-31.5 33.5q15 -8 27 -7.5t24 11.5q12 -23 52 0q44 17 72 -7q-23 -12 -12 -38zM130 433q13 14 17.5 29.5t4.5 36.5q-3 35 -11.5 73t-15.5 81q-10 55 -32.5 85t-70.5 36q56 5 100 -1.5t73 -28.5q60 43 176 32q-97 -11 -103 -122q6 -34 10.5 -79t15.5 -89
q-1 -13 3.5 -27t15.5 -28q-14 12 -33 14t-37 -7q-9 -4 -19 -7.5t-18 -3t-12.5 7t-2.5 24.5q-8 -30 -25.5 -32.5t-35.5 6.5zM861 431q-14 5 -32 5t-40 -23q-16 -1 -24 2t-13 22q14 14 18.5 25t7.5 24l7.5 41t5.5 40l6 20q2 17 5 33.5t7 33.5q13 112 -81 122q58 7 86 1.5
t46 -28.5q18 26 50.5 30t87.5 -1q-98 -12 -125 -121q-4 -17 -6.5 -33l-5.5 -34q-1 -4 -2.5 -9t-1.5 -10l-5 -29h-1l-8 -41q-5 -22 1 -39t17 -31zM516 151q-30 -125 11 -289q8 -100 -5 -174t-45 -124q40 101 0 293q-15 85 -4.5 158t43.5 136zM356 755q37 8 58 -12.5t31 -55.5
q11 -41 -23 -58q-40 -4 -51 31q-5 14 3.5 28t33.5 16q-5 14 -18.5 21t-35.5 2q9 -9 6.5 -20.5t-19.5 -24.5q-20 -10 -31.5 -34t-12.5 -61q-8 22 -7.5 50.5t8 54t22 43.5t36.5 20zM750 422v6v-6z" />
    <glyph glyph-name="Y" unicode="Y" horiz-adv-x="601" 
d="M427 304q-44 -26 -104 31q23 29 -10 75l-67 123l-65 118q-49 92 -159 130q161 23 210 -34q74 56 189 34q-130 -37 -76 -137l59 -110.5l43 -79l29.5 -53.5l19.5 -35q1 -2 9 8.5t18 28.5t21 40.5t18.5 43t10 37t-3.5 22.5q18 8 28.5 7.5t21 -3.5t24 -6t36.5 2
q-13 -3 -29.5 -21t-33.5 -44t-33.5 -55t-29 -55t-19 -44.5t-4.5 -22.5q-29 21 -51.5 22t-51.5 -22zM524 297q-9 -17 -12.5 -32.5t-3.5 -30.5v-232q0 -122 95 -159q-48 -5 -90 4t-71 42q-32 -33 -74 -42t-92 -4q29 10 48.5 30t31.5 42.5t17.5 44.5t5.5 38v239v3l-3 9
q-34 64 -107 49q-52 -13 -36 -91q-30 11 -32 55q-32 -67 16 -107q4 16 13 20.5t26 -2.5q56 -22 87 30q-5 -44 -28 -65t-68 -20q-77 9 -74 107q24 112 126 102q41 -9 64 -31q20 -10 33.5 -10t24 5.5t19.5 12.5t20 10.5t26 0.5t38 -18zM616 593l26 51t27 49q31 81 -60 88
q95 12 125 -20q60 38 140 20q-70 -12 -125 -82l-67 -113q-17 -23 2 -32q-12 -6 -25.5 -6.5t-26.5 3.5q-37 13 -61 2q16 10 26.5 19.5t18.5 20.5zM369 746q27 23 53 16t48 -31q28 -27 7 -56q-28 -23 -53 1q-9 9 -9.5 25t18.5 27q-21 19 -54 -4q27 -8 10 -44q-23 -32 9 -94
q-16 14 -28.5 36.5t-17.5 46.5t-2 45t19 32z" />
    <glyph glyph-name="Z" unicode="Z" horiz-adv-x="924" 
d="M400 356q-21 1 -35.5 19.5t-22 44t-8 54t7.5 50.5q2 -38 13 -61.5t31 -31.5q33 -30 13 -48q45 -9 54 23q-24 0 -32 16t-3 30q9 38 50 30q17 -10 23.5 -23.5t1.5 -35.5q-11 -35 -32 -55t-61 -12zM19 -306q296 311 636 154q250 -118 428.5 -136t286.5 67
q-18 -104 -172 -119q-108 -132 -347 -17q-112 82 -214 132t-202 60t-202 -23.5t-214 -117.5zM971 -277q59 -11 106.5 -18t88.5 -7t78 9t76 30q33 26 44 65t-1 88q-22 74 -109 40q5 23 19.5 36t37.5 18q-77 33 -114 -36q35 -8 25 -50q-21 -82 43 -119q-98 3 -107 124
q0 106 109 115q126 -21 131 -166q-8 -118 -98 -151q-27 -12 -59 -19t-72 -6.5t-89 11.5t-109 36zM398 459q1 -8 -5 -10t-14 9q-52 78 -27 188q-58 79 -16 160q3 -53 73 -55q40 35 89.5 35.5t111.5 -34.5q-125 -2 -174 -62q-80 -113 -38 -231zM1014 780l-57.5 -91l-57.5 -90
q-20 -38 7 -80q-96 47 -178 -1q-95 -48 -158 1q42 5 73 29.5t53 66.5q25 57 2 97.5t-92 67.5q38 4 65 -1t43 -16q45 15 91 14.5t94 -19.5q28 15 57 20t58 2zM531 23q-23 -45 -57 -67.5t-66 -24.5q-32 0 -56 -3t-44 -8.5t-39.5 -13t-42.5 -17.5l162.5 251l163.5 251
q17 27 21.5 57t-6.5 56q68 -62 178 4q35 17 74.5 17t81.5 -23q-48 -20 -85 -54.5t-63 -74.5q-25 -44 -53.5 -88l-58 -87.5l-58 -87.5t-52.5 -87z" />
    <glyph glyph-name="X" unicode="X" horiz-adv-x="763" 
d="M828 -150q67 -186 215 -115q28 29 36.5 63.5t-3.5 78.5q-20 64 -96 36q11 38 51 47q-69 30 -101 -31q31 -8 21 -45q-8 -37 0.5 -62.5t37.5 -42.5q-86 1 -96 108q0 50 25.5 75t73.5 27q114 -19 115 -147q-6 -104 -85 -134q-69 -16 -117.5 18.5t-76.5 123.5zM519 158
q-22 3 -19 32q-12 9 -16.5 25t-3.5 38q0 103 -81 195q57 -51 87.5 -123t32.5 -167zM-68 -149q-28 -89 -76.5 -123.5t-117.5 -18.5q-79 30 -85 134q1 128 115 147q48 -2 73.5 -27t25.5 -75q-11 -107 -96 -108q29 17 37.5 42.5t0.5 62.5q-10 37 21 45q-32 61 -101 31
q40 -9 51 -47q-76 28 -96 -36q-12 -44 -3.5 -78.5t36.5 -63.5q148 -71 215 115zM241 159q2 95 32.5 167t87.5 123q-81 -92 -81 -195q1 -22 -3.5 -38t-16.5 -25q3 -29 -19 -32zM358 461q-72 -66 -104 -142.5t-27 -161.5q-8 8 -15.5 20.5t-13.5 31.5q-30 -289 -147 -431
q-32 -42 -62 -55.5t-59 3.5q-53 -62 -117 -40q94 16 228 331q57 182 135 294.5t175 157.5q-15 26 -35 52t-49 56l-32 33q-16 14 -33.5 25t-42.5 18q-66 14 -77 -66q-29 26 -16 67q-29 -22 -36.5 -48.5t12.5 -56.5q22 23 50 -1q26 -26 55 -31.5t57 10.5q-46 -74 -144 -27
q-41 24 -52 58t12 77q57 67 135 48l-48 43q-55 43 -111 53q63 31 149 -11q35 37 146 11q-35 -5 -49 -19.5t-13 -33t15 -40.5t35 -42l34 -39.5t30 -39.5q25 -42 39.5 -39.5t35.5 38.5l29 40t34 39q21 20 35 42t15 40.5t-13 33t-49 19.5q111 26 146 -11q86 42 149 11
q-56 -10 -111 -53l-48 -43q78 19 135 -48q23 -43 12 -77t-52 -58q-98 -47 -144 27q28 -16 57 -10.5t55 31.5q28 24 50 1q20 30 12.5 56.5t-36.5 48.5q13 -41 -16 -67q-11 80 -77 66q-25 -7 -42.5 -18t-33.5 -25l-32 -33q-29 -30 -49 -56t-35 -52q97 -45 175 -157.5
t135 -294.5q134 -315 228 -331q-64 -22 -117 40q-29 -17 -59 -3.5t-62 55.5q-117 142 -147 431q-6 -19 -13.5 -31.5t-15.5 -20.5q5 85 -27 161.5t-104 142.5q-8 8 -19.5 10t-24.5 -9z" />
    <glyph glyph-name="b" unicode="b" horiz-adv-x="523" 
d="M57 673q-2 19 -12.5 26.5t-25.5 9.5q27 4 49 -3t34 -33q13 22 29.5 29t35.5 8q26 2 52.5 1l53.5 -2q89 -3 125 -36q23 -14 37 7q10 -33 -10 -50q-16 -147 -152 -167q76 -5 121.5 -30.5t69 -64.5t27.5 -88.5t-3 -103.5q-9 -55 -41 -97q15 -2 18 -10q-35 -11 -56 -36
q-32 -23 -67.5 -29.5t-74.5 -5.5h-29.5t-35 0.5t-34 2t-27.5 4.5q-12 4 -22 11.5t-15 19.5q-14 -24 -38 -29.5t-49 -5.5q14 3 24.5 10.5t15.5 24.5v427q-1 25 -20 34q17 14 20 30v146zM251 464q96 28 78 123q-5 -16 -23 -11q8 39 3.5 64.5t-21.5 40.5q-9 7 -30.5 12t-44.5 5
t-41.5 -5.5t-20.5 -20.5v-145q2 -11 6.5 -18t12.5 -12q-11 -5 -14.5 -14t-4.5 -20v-412q0 -23 18.5 -30.5t43.5 -6.5t49.5 7t36.5 11q43 19 64.5 58.5t21.5 104.5q12 0 20 -14q6 51 -5.5 101t-39 89.5t-70.5 64.5t-100 26q17 2 32 2h29z" />
    <glyph glyph-name="a" unicode="a" horiz-adv-x="483" 
d="M157 500q16 7 24 29q8 44 14 74l10.5 52.5t9 41.5t9 41.5l10.5 53t14 75.5l34.5 -177l28.5 -144l24 -119l20 -102q48 3 81.5 -13t56.5 -45q-56 32 -131 18q11 -52 19.5 -101.5l17.5 -105.5q8 -37 22 -56t46 -23q-74 -6 -113 20q-20 -14 -48.5 -19.5t-63.5 -0.5
q62 8 65 77l-14 99l-12 86q-27 -11 -55.5 -27.5t-59.5 -36.5q-4 -25 -7 -41t-3 -19q-2 -4 -2 -7t-2 -6q-1 -11 -3 -22l-4 -23q-9 -70 51 -77q-38 -3 -55.5 0t-28.5 17q-12 -16 -33 -19t-58 1q65 7 81 77l9 42q1 4 1 7.5t1 7.5l4 17v4t2 7l-3 -2q-154 -70 -222 13
q-48 5 -76.5 23.5t-33.5 51.5q112 -88 350 -1l12 67l11 64.5t9 49.5t4 22q2 13 -2 27t-11 22zM228 500q-10 -9 -12.5 -20t-4.5 -19q0 -1 -0.5 -1.5t-0.5 -1.5q-2 -8 -5 -27.5l-7.5 -46.5l-10 -58.5l-10.5 -61.5l31 13.5l32 14.5q8 5 17 8.5l17 6.5l-18 109t-27 142l-5 -31z
" />
    <glyph glyph-name="c" unicode="c" horiz-adv-x="448" 
d="M328 469q63 159 -27 213q-24 14 -46.5 15.5t-48.5 -15.5q-22 -14 -38 -41.5t-24 -69.5q-8 -23 -1 -45q-16 -11 -22 -30q-6 -63 1 -126.5t30 -132.5q66 -219 280 -253q-197 8 -286 107q-134 149 -121 392q3 33 -9 42q6 4 11 11t10 16q17 37 36 65.5t40 51.5q11 9 24 16.5
t26 12.5q16 6 38 10t46 4.5t47 -2t43 -8.5q20 -7 34 3t16 26q16 -61 -11 -104q5 -98 -48 -158z" />
    <glyph glyph-name="d" unicode="d" horiz-adv-x="483" 
d="M57 677q-2 18 -12 25.5t-26 9.5q27 5 49 -2t35 -33q17 27 40 32.5t48 3.5l58 -1q59 0 107.5 -50.5t75.5 -132.5q2 -8 11.5 -17.5t22.5 -14.5q-11 -2 -15 -14.5t-2 -22.5q9 -51 9 -106q0 -75 -16.5 -140t-44.5 -114t-66.5 -77t-81.5 -28h-62q-29 -2 -50 5t-33 29
q-14 -24 -37.5 -30t-49.5 -5q15 2 25.5 10t14.5 25v433q-2 27 -19 35q16 11 19 31v149zM154 677v-149q4 -21 17 -31q-9 -6 -12.5 -15t-4.5 -20v-433q2 -15 18 -19.5t35.5 -2.5t38 8t27.5 12q18 13 33.5 43t26.5 73.5t17.5 97t6.5 113.5q0 28 -1.5 54t-3.5 52q-2 10 -8 20.5
t-17 16.5q11 3 13.5 13t0.5 18q-11 54 -27 93.5t-37 56.5q-8 6 -28 11.5t-41 6.5t-37.5 -3t-16.5 -16zM250 632q-33 -63 -38 -123t17 -123q21 -61 25.5 -122.5t-4.5 -121.5q28 66 31.5 127.5t-18.5 124.5q-22 61 -24.5 120.5t11.5 117.5z" />
    <glyph glyph-name="e" unicode="e" horiz-adv-x="392" 
d="M57 675q-2 18 -12.5 26t-25.5 10q27 4 48.5 -3t34.5 -33q12 20 26.5 27.5t31.5 9.5h1q15 0 33 -0.5t37 0.5q23 1 38.5 -2t23.5 -8q42 -5 57 33q18 -67 -12 -120q4 -109 -57 -180q73 178 -27 242q-20 13 -37 17.5t-39 4.5q-26 0 -26 -24v-146q2 -12 6.5 -19t10.5 -12
q-17 -11 -17 -34v-428q5 -21 20 -21h34q15 0 28.5 5.5t27.5 13.5q105 63 30 244q63 -69 58 -180q30 -50 12 -120q-15 37 -57 33q-17 -8 -72 -10q-16 0 -31.5 -0.5t-31.5 0.5q-47 0 -67 35q-14 -25 -37 -31t-49 -4q15 2 25.5 10t14.5 25v428q-1 25 -20 35q17 11 20 30v146z
M362 445q-9 -50 -43 -57.5t-73 27.5q-26 23 -46 23.5t-47 -16.5q12 19 25 28t27 10.5t29 -3.5t30 -14q15 -8 28.5 -14t26 -7t23.5 4t20 19z" />
    <glyph glyph-name="f" unicode="f" horiz-adv-x="373" 
d="M57 675q-2 20 -12 27t-26 9q27 5 49 -2.5t34 -33.5q13 21 29 28t33 9q14 1 29 0.5t29 -1.5q24 -1 40.5 -2.5t24.5 -6.5q44 -5 57 33q18 -71 -12 -120q4 -108 -56 -179q24 -12 45 -12.5t37 22.5q-10 -50 -44 -57.5t-74 27.5q-25 22 -43 23.5t-44 -12.5v-395
q2 -13 13 -20.5t26 -12.5q-30 -3 -53 3.5t-36 29.5q-14 -24 -37 -30t-49 -4q16 2 26 9.5t14 24.5v432q-2 25 -19 34q16 12 19 30v147zM153 675v-147q2 -11 6.5 -18.5t10.5 -12.5q-9 -5 -12.5 -14t-4.5 -20v-31q22 32 49 30.5t57 -18.5q4 -2 8 -3.5t8 -3.5q88 213 -77 262
q-4 1 -11 1t-14.5 -3t-13 -8t-6.5 -14z" />
    <glyph glyph-name="g" unicode="g" horiz-adv-x="458" 
d="M189 -1q-36 15 -66 48t-52 80t-34.5 105t-12.5 123q0 58 9 109q2 10 -1.5 21.5t-14.5 15.5q13 5 22 15t12 17q24 72 64 120.5t89 63.5q14 4 27.5 4.5t27.5 0.5q53 -2 68 -11q44 -6 58 34q18 -72 -12 -124q5 -114 -59 -184q38 92 30.5 158.5t-58.5 89.5q-26 12 -41 12.5
t-36 -13.5q-23 -14 -38.5 -55t-26.5 -96q-2 -9 0.5 -19t13.5 -13q-11 -7 -17 -17.5t-7 -19.5q-2 -18 -3.5 -36.5t-1.5 -38.5q33 -16 74 -5.5t87 33.5q31 15 61 24t58.5 6.5t54.5 -18.5t49 -50q-33 18 -59.5 25t-53.5 2l-1 -206q-2 -26 12 -45.5t29 -24.5q-5 0 -10.5 0.5
t-10.5 0.5q-35 -100 -116 -128q-27 -10 -57 -12t-57 8zM303 225v125q-53 -32 -99 -33t-76 30q1 -107 20 -189.5t50 -119.5q19 -23 41 -22t48 16q48 25 37 98q-3 26 -11.5 48t-9.5 47z" />
    <glyph glyph-name="h" unicode="h" horiz-adv-x="475" 
d="M57 674q-2 19 -12.5 26.5t-24.5 9.5q26 4 47 -3t35 -33q17 28 39.5 33.5t48.5 3.5q-35 -9 -38 -37v-146q3 -21 17 -30q-17 -11 -17 -35v-41q47 23 91 24.5t81 -32.5v49q-1 12 -5 21t-15 14q10 5 14 13t6 17v146q-2 19 -12.5 26.5t-24.5 9.5q27 4 48.5 -3t34.5 -33
q17 28 39.5 33.5t47.5 3.5q-18 -5 -26.5 -14.5t-10.5 -22.5v-146q3 -23 18 -30q-18 -11 -18 -35v-427q2 -14 13 -21.5t25 -12.5q-29 -3 -52.5 4t-34.5 30q-14 -24 -37.5 -30t-49.5 -5q15 2 26 10t14 25v357q-39 17 -72.5 12.5t-77.5 -37.5q-5 -5 -10.5 -9t-11.5 -9v-314
q2 -14 12.5 -21.5t25.5 -12.5q-29 -3 -52 4t-34 30q-15 -24 -38 -30t-49 -5q15 2 25 10t15 25v283q-42 -1 -71.5 23.5t-40.5 75.5q23 -29 51.5 -35.5t60.5 1.5v79q-2 26 -20 35q17 11 20 30v146z" />
    <glyph glyph-name="i" unicode="i" horiz-adv-x="206" 
d="M56 464q-1 12 -5 21t-15 14q10 5 14 13t6 17v146q-2 19 -12.5 26.5t-24.5 9.5q27 4 48.5 -3t34.5 -33q17 28 39.5 33.5t47.5 3.5q-18 -5 -26.5 -14.5t-10.5 -22.5v-146q3 -23 18 -30q-18 -11 -18 -35v-427q2 -14 13 -21.5t25 -12.5q-29 -3 -52.5 4t-34.5 30
q-14 -24 -37.5 -30t-49.5 -5q15 2 26 10t14 25v427z" />
    <glyph glyph-name="j" unicode="j" horiz-adv-x="392" 
d="M241 681q-2 19 -12.5 26t-25.5 9q27 5 49.5 -2t35.5 -33q17 27 40.5 32.5t47.5 3.5q-17 -4 -26 -13.5t-12 -22.5v-151q2 -11 7 -18t11 -12q-9 -6 -12.5 -14.5t-5.5 -19.5v-310q0 -54 -23 -90t-59.5 -54.5t-81.5 -19t-88 16.5q-44 4 -60 -35q-16 73 13 122q-3 58 12 104
t47 81q-79 -185 33 -250q30 -17 51 -17.5t34 9.5t19 26.5t6 33.5v383q-2 25 -19 34q14 11 19 30v151z" />
    <glyph glyph-name="k" unicode="k" horiz-adv-x="515" 
d="M57 679q-2 18 -12.5 26t-26.5 10q28 4 50 -3t34 -33q17 28 40 33t48 3q-34 -8 -37 -36v-148q2 -11 6.5 -19t10.5 -13q-15 -10 -17 -34v-54l50 55q21 26 10 34q15 5 26.5 13.5t20.5 17.5l68 74l67 74q9 10 4.5 22.5t-17.5 14.5h55t67 -1q-21 -4 -38 -13t-31 -23l-67 -74
l-67 -74q-16 -22 -10 -32q-28 -10 -49 -34l-29 -32q72 -2 111 -30t59 -85l54 -156.5l55 -157.5q53 -145 165 -79q-51 -109 -140 -62q-92 -21 -125 138l-33 138l-33 138q-7 37 -20 64t-29 45.5t-33.5 29t-32.5 15.5l-58 -64v-333q2 -15 13 -22t26 -12q-29 -3 -52.5 3.5
t-36.5 30.5q-14 -25 -37.5 -31t-49.5 -5q15 3 25.5 11t15.5 25v432q-1 12 -5.5 21t-13.5 13q16 11 19 31v148z" />
    <glyph glyph-name="l" unicode="l" horiz-adv-x="397" 
d="M57 671q-2 19 -13 26.5t-25 9.5q27 5 48.5 -2.5t34.5 -33.5q9 14 19 22t21 11.5t23.5 4t24.5 -0.5q-35 -11 -38 -37v-145q2 -12 6.5 -19t10.5 -12q-17 -12 -17 -36v-409q0 -15 7.5 -18t18.5 -1q50 5 91.5 30.5t70 67t43.5 96t13 117.5q44 -87 -15 -224q13 -62 -42 -150
q0 45 -56 41q-9 -4 -25 -8.5t-39 -3.5q-17 1 -32 1h-29q-38 0 -55 34q-14 -24 -37 -30t-49 -5q14 2 25 10t15 25v429q-1 24 -20 34q17 11 20 31v145z" />
    <glyph glyph-name="m" unicode="m" horiz-adv-x="757" 
d="M440 708q25 3 46.5 -4.5t38.5 -32.5q6 14 14.5 22t19 11.5t22 4t23.5 -0.5q-30 -9 -29 -37l13.5 -72.5t14.5 -73.5q5 -19 23 -30q-9 -5 -11 -14t0 -20l42 -213.5l41 -212.5q4 -14 16.5 -21.5t27.5 -12.5q-29 -3 -52.5 4t-40.5 30q-10 -25 -31.5 -31t-47.5 -5q14 3 23 11
t9 25l-40.5 212.5l-40.5 214.5q-10 26 -27 34q13 9 13 29l-20 106l-28 -107q-2 -11 1 -18t8 -12q-11 -5 -17 -14t-9 -20l-103 -369l-103 371q-5 12 -11.5 20.5t-18.5 13.5q8 5 10.5 12.5t1.5 16.5l-32 118l-27 -119q-1 -11 2.5 -18t8.5 -12q-11 -5 -17 -14t-8 -20
l-47 -212.5l-49 -212.5l-12.5 -51.5t-12 -42t-15 -37.5t-20.5 -38q-1 22 -0.5 40t3 37t6.5 41t11 51l48.5 212.5l48.5 213.5q2 11 -1 20.5t-11 13.5q20 12 26 29q18 73 33 147q2 18 -6 26t-23 10q3 1 5.5 1h4.5q25 3 47.5 -4t42.5 -33q9 28 30 33t47 3q-33 -9 -27 -36
q10 -36 19 -72.5t20 -73.5q8 -19 26 -30q-8 -5 -9.5 -14t2.5 -20l36 -132l34 132q2 11 0 20.5t-10 13.5q19 12 27 29q11 37 20 73.5t20 73.5q2 18 -6 26t-22 10q2 0 4 0.5t5 0.5z" />
    <glyph glyph-name="n" unicode="n" horiz-adv-x="522" 
d="M56 675q-2 18 -12.5 25.5t-25.5 9.5q27 5 48.5 -2t35.5 -33q17 27 39.5 32t48.5 3q-34 -7 -39 -35q0 -23 1.5 -41.5t6.5 -36t14 -35t23 -36.5q33 -46 90 -100q51 -42 88 -89.5t54 -113.5v238q-2 26 -21 35q17 12 21 30v149q-3 18 -13 25.5t-26 9.5q27 5 42 -1.5t17 -32.5
q1 13 5.5 20t11.5 10.5t17 4t23 -0.5q-35 -8 -38 -35v-149q2 -11 6.5 -18t10.5 -12q-9 -6 -12 -14.5t-5 -20.5v-431q0 -29 -0.5 -51.5t-3 -42t-7 -37.5t-11.5 -39q-6 22 -9.5 40.5t-5.5 37.5t-2 41v51v23q-13 57 -36 95.5t-49 66t-52.5 46.5t-45.5 37q-18 16 -33 34.5
t-26.5 42.5t-20 55.5t-14.5 75.5v-476q3 -14 14.5 -21t25.5 -14q-30 -2 -52.5 5t-35.5 30q-14 -24 -37.5 -30t-49.5 -5q14 2 25.5 10t14.5 25v431q-2 27 -19 35q16 12 19 30v149z" />
    <glyph glyph-name="o" unicode="o" horiz-adv-x="465" 
d="M232 -1q-43 0 -80.5 28t-66 76.5t-45 113t-16.5 138.5q0 29 2.5 55t6.5 52q2 10 -1.5 21t-14.5 16q12 5 21.5 14t12.5 17q13 40 32 73.5t42.5 57.5t50.5 37.5t56 13.5q30 0 57 -13.5t50.5 -37.5t42.5 -57.5t32 -73.5q3 -8 12.5 -17t21.5 -14q-10 -5 -14 -16t-2 -21
q4 -26 6.5 -52t2.5 -55q0 -74 -16.5 -138.5t-45 -113t-66.5 -76.5t-81 -28zM232 690q-29 0 -53.5 -44.5t-38.5 -116.5q-2 -8 1 -17.5t14 -13.5q-11 -6 -17 -16.5t-8 -19.5q-2 -26 -3.5 -52t-1.5 -55q0 -69 8.5 -129.5t23 -105.5t34 -71t41.5 -26t42 26t35 71t23.5 105.5
t8.5 129.5q0 56 -6 107q-1 9 -7.5 19.5t-16.5 16.5q10 4 13 13.5t1 17.5q-14 72 -38.5 116.5t-54.5 44.5zM248 623q-64 -122 -22 -244q22 -62 26 -122.5t-4 -120.5q54 130 13 250q-23 61 -25 120t12 117z" />
    <glyph glyph-name="p" unicode="p" horiz-adv-x="516" 
d="M58 676q-2 18 -13 26.5t-26 10.5q28 4 49.5 -3.5t34.5 -33.5q11 18 25 26.5t31 10.5q22 3 37.5 1.5t39.5 2.5q107 17 184 -30q22 -18 57 -28q-3 -8 -19 -8q17 -19 27 -39.5t15 -42.5q3 -179 -148 -197q-122 -13 -157 89q24 -37 54.5 -52t68.5 -10q110 30 98 166
q-6 -11 -20 -11q0 149 -176 145q-5 0 -14 0.5t-19 -1t-19 -6.5t-13 -17v-147q3 -22 16 -32q-16 -9 -16 -34v-432q2 -14 12.5 -21.5t25.5 -12.5q-30 -3 -53 4t-35 30q-15 -25 -38 -31t-50 -4q15 2 26 10t15 25v433q-1 12 -5.5 21t-15.5 13q18 11 21 31v148z" />
    <glyph glyph-name="q" unicode="q" horiz-adv-x="461" 
d="M232 621q-64 -121 -20 -242q21 -62 25 -122.5t-5 -122.5q56 133 13 252q-40 120 -13 235zM157 -30q14 14 30 21t33 9q-41 3 -77 32t-62.5 77t-42 111t-15.5 135q0 28 2.5 54.5t6.5 51.5q2 11 -1.5 22.5t-14.5 14.5q12 5 21.5 14t11.5 17q13 40 32 73.5t42.5 57.5t51 37.5
t56.5 13.5q30 0 57 -13.5t50 -37.5t42 -57.5t32 -73.5q2 -8 12 -17t23 -14q-11 -3 -15 -14.5t-2 -22.5q5 -25 7.5 -51.5t2.5 -54.5q0 -72 -16 -136t-44 -112t-65 -76.5t-79 -30.5q12 -2 26 -6.5t28 -12.5l100.5 -56.5l102.5 -56.5q96 -51 124 37q23 -83 -45 -99
q-37 -55 -129 13l-82.5 57.5l-81.5 57.5q-44 29 -74 39t-48 -3zM231 689q-30 0 -54.5 -44.5t-38.5 -116.5q-1 -8 2 -17.5t14 -12.5q-11 -6 -18 -16.5t-8 -20.5q-1 -25 -2.5 -51.5t-1.5 -54.5q0 -69 8.5 -129.5t22.5 -105t33.5 -70.5t42.5 -26q22 0 41.5 26t34.5 70.5
t23.5 105t8.5 129.5q0 56 -6 106q-1 10 -7 20.5t-16 16.5q9 3 12 12.5t1 17.5q-14 72 -38.5 116.5t-53.5 44.5z" />
    <glyph glyph-name="r" unicode="r" horiz-adv-x="471" 
d="M56 672q-2 19 -12.5 26t-25.5 9q28 5 49 -2t35 -33q12 20 28 27.5t34 8.5q17 2 34.5 2h33.5q98 0 137 -38q22 -12 37 7q12 -32 -11 -50q-19 -166 -185 -169q108 26 89 127q-5 -17 -23 -11q21 101 -47 118q-9 2 -22 3t-25 -1.5t-21 -8t-9 -15.5v-148q2 -11 6.5 -17.5
t10.5 -11.5q-17 -11 -17 -35v-428q2 -15 13 -22t25 -12q-29 -4 -52.5 3t-34.5 31q-15 -25 -38 -31t-49 -4q15 2 25.5 10t14.5 25v429q0 25 -20 34q18 11 20 29v148zM192 460q113 5 154 -113l52 -156l55 -156q53 -147 164 -78q-50 -109 -138 -63q-46 -11 -78 23.5t-47 114.5
q-17 67 -32.5 135.5l-31.5 136.5q-35 150 -98 156z" />
    <glyph glyph-name="s" unicode="s" horiz-adv-x="412" 
d="M296 431q73 178 -28 241q-24 16 -52 19.5t-50 -21.5q-28 -35 -21 -107q4 -57 57 -69q0 -30 46 -54q136 -73 147 -209q-11 -228 -194 -230q-175 14 -185 195q6 93 55 92q28 36 61 9q-49 -51 -43 -133q12 -148 110 -145q106 14 113 145q-3 92 -100 166q-37 23 -71 55
t-64 71q-7 8 -14.5 17.5t-18.5 20.5q12 11 8 29q-14 94 48 148q63 65 181 32q7 -2 22 -5.5t28 -0.5q25 6 35 32q16 -70 -13 -120q4 -109 -57 -178z" />
    <glyph glyph-name="t" unicode="t" horiz-adv-x="542" 
d="M226 674q-2 12 -11.5 17.5t-21.5 7t-25 0t-20 -2.5q-155 -51 -69 -260q-61 68 -57 180q-14 23 -17.5 53.5t5.5 65.5q15 -38 57 -33q16 8 70 10q17 0 35 -0.5t38 -0.5t36 -8.5t25 -28.5q13 20 29 27.5t33 8.5q21 2 40.5 2.5t39.5 -0.5q52 -2 67 -10q42 -5 57 33
q17 -73 -13 -119q4 -114 -57 -180q87 210 -70 261q-8 1 -19.5 2t-23.5 -1t-21 -7.5t-10 -16.5v-147q2 -11 6 -18t10 -12q-9 -5 -12.5 -14.5t-3.5 -20.5v-428q2 -13 12.5 -20.5t24.5 -12.5q-29 -3 -52 3.5t-35 29.5q-14 -23 -37.5 -29t-49.5 -5q34 5 40 34v428q-2 26 -18 36
q15 10 18 29v147z" />
    <glyph glyph-name="u" unicode="u" horiz-adv-x="500" 
d="M55 677q-2 19 -12.5 26.5t-25.5 9.5q27 5 49 -2.5t34 -33.5q19 28 42 33t47 3q-17 -4 -26 -13.5t-11 -22.5v-149q4 -22 18 -31q-18 -11 -18 -35v-272q-1 -26 7.5 -55.5t25 -54t41 -40.5t54.5 -16q34 0 58 16t39 40.5t21.5 54.5t6.5 57v269q-1 12 -5.5 21t-15.5 14
q18 11 21 31v149q-2 18 -13 26t-26 10q54 7 59 -35q10 40 58 36q-17 -4 -26 -13.5t-11 -22.5v-149q3 -22 17 -31q-17 -11 -17 -35l-1 -302q0 -41 31 -57q-32 -50 -90.5 -80.5t-130.5 -30.5q-71 0 -129 30.5t-91 80.5q9 10 14 23.5t6 33.5v302q-2 27 -21 35q18 12 21 31v149z
M281 636q-65 -123 -22 -245q22 -62 26 -123.5t-4 -123.5q56 132 13 255q-23 61 -25 120.5t12 116.5z" />
    <glyph glyph-name="v" unicode="v" horiz-adv-x="501" 
d="M62 672q-8 18 -20 25t-27 9q26 5 49 -2t43 -32q8 27 29 32t44 3q-15 -3 -21 -12.5t-4 -22.5q10 -35 19 -71t20 -71q5 -11 11 -18t14 -13q-14 -8 -7 -33l72 -260l66 258q4 25 -10 34q20 12 26 30q10 35 18.5 70.5t18.5 71.5q2 17 -6.5 25t-22.5 9q28 5 41 -1.5t8 -31.5
q8 25 24 30.5t39 3.5q-34 -9 -45 -35l-17.5 -71.5t-19.5 -70.5q-1 -22 10 -30q-20 -11 -26 -35l-79 -310l-51 -181l-52 181l-87 313q-5 12 -11.5 21t-17.5 13q13 11 11 30l-19 71z" />
    <glyph glyph-name="w" unicode="w" horiz-adv-x="765" 
d="M62 676q-8 17 -20 25t-26 9q25 4 47.5 -2.5t41.5 -31.5q10 26 30.5 31t45.5 3q-28 -7 -26 -34q10 -35 19 -70.5l19 -72.5q7 -21 24 -29q-13 -9 -8 -34l62 -232l75 295l58 258l72 -258l79 -297l59 236q4 25 -9 34q17 11 25 30l18 71l17 71q2 18 -5.5 25t-21.5 8
q26 5 39.5 -1.5t8.5 -29.5q8 25 23.5 30t39.5 3q-35 -9 -44 -35q-10 -35 -18.5 -71t-18.5 -71q-2 -12 1 -19t9 -12q-21 -10 -25 -34l-120 -488l-152 545l-66.5 -275.5l-66.5 -276.5l-66 247.5l-66 246.5q-9 26 -28 34q14 9 12 29l-19.5 72.5z" />
    <glyph glyph-name="x" unicode="x" horiz-adv-x="575" 
d="M120 671q-11 18 -25 26t-29 10q25 3 49.5 -3.5t49.5 -32.5q4 27 24 32.5t46 3.5q-30 -9 -19 -36l34.5 -73l34.5 -72q16 -22 32 -31q11 5 19 13t13 16l71 145q7 19 0.5 26.5t-20.5 9.5l120 1q-37 -9 -52 -37q-19 -36 -36.5 -72.5l-35.5 -71.5q-7 -20 2 -32
q-11 -5 -19.5 -13.5t-14.5 -19.5l-23 -49l180 -375q9 -14 23.5 -21t31.5 -12q-27 -3 -53.5 3.5t-49.5 29.5q-2 -24 -22.5 -30t-46.5 -4q14 2 21 9.5t2 24.5l-162 335l-162 -333q-5 -14 2 -21.5t18 -12.5l-123 -1q16 2 30 10t27 25l186 381l-21 43q-7 11 -16 20t-21 13
q11 11 6 31l-35.5 72zM317 493q-6 -5 -5.5 -13t5.5 -19l1 -2l1 2q8 25 -2 32z" />
    <glyph glyph-name="y" unicode="y" horiz-adv-x="542" 
d="M67 671q-10 19 -23.5 26t-28.5 9q25 5 49 -2t47 -33q3 14 9.5 21.5t16.5 11t22 4t24 -0.5q-28 -8 -23 -36l29.5 -72.5l28.5 -73.5q11 -20 30 -29q-14 -10 -4 -34l53 -137l56 138q9 24 -6 34q11 5 19 12.5t13 15.5l28.5 73.5l29.5 72.5q5 19 -2 26t-22 9q29 5 41.5 -1.5
t3.5 -31.5q11 26 28.5 31t40.5 3q-38 -9 -51 -36l-29 -72.5l-30 -73.5q-5 -19 6 -29q-12 -5 -19 -14t-12 -20l-75 -185h-1v-239q2 -14 13 -21.5t26 -12.5q-30 -3 -52.5 4t-34.5 30q-15 -25 -37.5 -30.5t-48.5 -4.5q16 2 26 10t14 25v239l-73 186q-12 24 -34 34q15 10 8 28
l-28 73.5z" />
    <glyph glyph-name="z" unicode="z" horiz-adv-x="636" 
d="M445 674q4 9 -1.5 15t-23.5 6h-75q-3 0 -15.5 0.5t-30.5 -1t-37.5 -5.5t-35.5 -14q-99 -64 -27 -236q-29 34 -44 77t-13 98q-28 49 -10 117q11 -38 55 -32q16 9 67 9q95 3 189 2.5t189 -1.5q-20 -4 -37.5 -13.5t-26.5 -21.5l-43.5 -72.5l-43.5 -71.5q-5 -11 -4.5 -17.5
t3.5 -11.5q-12 -5 -20.5 -14t-15.5 -20l-39 -64l-50.5 -82.5l-56.5 -91.5l-56 -91l-49.5 -82.5l-37.5 -65.5q-8 -16 -31.5 -32t-55.5 -19q-41 -4 -58.5 -13t-16.5 -7q7 14 28.5 50.5l51 86l64 107l68.5 114l64.5 106.5l51.5 85q14 26 1 33q21 10 37 29l42.5 71.5zM-76 -195
q35 116 170 116q29 -1 69.5 -5.5t86 -11.5l94 -15t94.5 -14.5t86.5 -11t70.5 -4.5q167 1 140 139q93 -91 12 -164q-11 -101 -183 -77q-25 2 -61 9t-77.5 16.5l-85.5 19.5l-85.5 19.5t-77.5 16.5t-61 10q-163 19 -192 -43z" />
    <glyph glyph-name="zero" unicode="0" horiz-adv-x="713" 
d="M214 611q46 126 153 102q61 -21 66 -97q-2 -90 -90 -105q-76 5 -76 73q6 76 74 79q-44 -24 -30 -75q8 -29 -17 -32q25 -46 81 -23q-35 6 -41 34q60 -21 75 26q18 59 -25 100q-115 51 -170 -82zM354 51q-12 -9 -28 -5.5t-31 13.5t-28 25.5t-19 30.5q37 -40 66 -31
q29 0 28 -20q28 17 19 38q-14 -11 -25.5 -6.5t-14.5 13.5q-11 24 13 39q27 8 39 -20q11 -23 8.5 -43.5t-27.5 -33.5zM31 562q20 5 31.5 17.5t23.5 28.5q101 141 267 138q193 0 280 -165q26 -52 -21 -101q6 -123 -78 -125q28 355 -186 370q-31 -1 -56.5 -16.5t-44.5 -39.5
t-31 -53.5t-15 -57.5q-25 -6 -40.5 -5.5t-38.5 9.5q-48 13 -91 0zM32 558q52 11 91 -4q14 -5 32 -7.5t46 5.5q-1 -10 0 -12.5t7 -5.5q-25 -33 -30 -74q-21 -209 43 -355q94 -139 272 -70q-197 -88 -347 45q-123 128 -115 360q2 16 2.5 31.5t2.5 32.5q0 5 -2.5 16t-12.5 13
q14 6 15.5 13.5t-4.5 11.5zM534 345q91 9 85 133q36 35 27 86q57 -76 26 -111q30 -210 -110 -371q-132 -89 -246 -48q153 -34 202 188q8 39 11 70zM214 611q46 126 153 102q61 -21 66 -97q-2 -90 -90 -105q-76 5 -76 73q6 76 74 79q-44 -24 -30 -75q8 -29 -17 -32
q25 -46 81 -23q-35 6 -41 34q60 -21 75 26q18 59 -25 100q-115 51 -170 -82zM354 51q-12 -9 -28 -5.5t-31 13.5t-28 25.5t-19 30.5q37 -40 66 -31q29 0 28 -20q28 17 19 38q-14 -11 -25.5 -6.5t-14.5 13.5q-11 24 13 39q27 8 39 -20q11 -23 8.5 -43.5t-27.5 -33.5zM31 562
q20 5 31.5 17.5t23.5 28.5q101 141 267 138q193 0 280 -165q26 -52 -21 -101q6 -123 -78 -125q28 355 -186 370q-31 -1 -56.5 -16.5t-44.5 -39.5t-31 -53.5t-15 -57.5q-25 -6 -40.5 -5.5t-38.5 9.5q-48 13 -91 0zM32 558q52 11 91 -4q14 -5 32 -7.5t46 5.5q-1 -10 0 -12.5
t7 -5.5q-25 -33 -30 -74q-21 -209 43 -355q94 -139 272 -70q-197 -88 -347 45q-123 128 -115 360q2 16 2.5 31.5t2.5 32.5q0 5 -2.5 16t-12.5 13q14 6 15.5 13.5t-4.5 11.5zM534 345q91 9 85 133q36 35 27 86q57 -76 26 -111q30 -210 -110 -371q-132 -89 -246 -48
q153 -34 202 188q8 39 11 70z" />
    <glyph glyph-name="space" unicode=" " horiz-adv-x="230" 
 />
  </font>
</defs>
</svg>
